# Blender 5.2.2 LTS
# www.blender.org
mtllib OldHarmanPickup.mtl
o HarmanRigged_0002:Gun_Static
v 1.241758 -1.246823 0.267936
v 1.150343 -0.917443 0.267936
v 1.241758 -0.917443 0.267936
v 1.150343 -1.246823 0.267936
v 1.241758 -1.246823 -0.293838
v 1.150343 -0.917443 -0.293838
v 1.150343 -1.246823 -0.293838
v 1.241758 -0.917443 -0.293838
v 1.196051 -1.246823 -0.242951
v 1.263646 -1.246823 -0.220988
v 1.128456 -1.246823 -0.220988
v 1.196051 -1.246823 0.217049
v 1.128456 -1.246823 0.195086
v 1.263646 -1.246823 0.195086
v 1.128456 -0.917443 -0.220988
v 1.060860 -1.246823 -0.199025
v 1.060860 -0.917443 -0.199025
v 0.977308 -0.917443 -0.084025
v 0.977308 -1.246823 -0.084025
v 1.128456 -0.917443 0.195086
v 1.060860 -1.246823 0.173123
v 1.060860 -0.917443 0.173123
v 0.977308 -1.246823 0.058123
v 0.977308 -0.917443 0.058123
v 1.263646 -0.917443 -0.220988
v 1.331242 -1.246823 -0.199025
v 1.331242 -0.917443 -0.199025
v 1.414794 -1.246823 -0.084025
v 1.414794 -0.917443 -0.084025
v 1.414794 -1.246823 0.058123
v 1.414794 -0.917443 0.058123
v 1.331241 -1.246823 0.173123
v 1.331241 -0.917443 0.173123
v 1.263646 -0.917443 0.195086
v 1.263646 -0.917443 0.080086
v 1.229849 -0.917443 0.091067
v 1.305422 -0.917443 0.022586
v 1.305422 -0.917443 -0.048488
v 1.263646 -0.917443 -0.105988
v 1.229849 -0.917443 -0.116969
v 1.196051 -0.917443 -0.127951
v 1.196051 -0.917443 -0.242951
v 1.196051 -0.917443 0.102049
v 1.196051 -0.917443 0.217049
v 1.162253 -0.917443 0.091067
v 1.128456 -0.917443 0.080086
v 1.086680 -0.917443 0.022586
v 1.086679 -0.917443 -0.048488
v 1.128456 -0.917443 -0.105988
v 1.162253 -0.917443 -0.116969
v 0.345018 6.488869 0.267944
v 0.291431 6.489133 -0.012951
v 0.494926 6.489133 -0.012951
v 0.186026 6.427612 0.092933
v 0.027035 6.488869 0.267944
v 0.257711 6.447589 0.059060
v 0.080622 6.489133 -0.012951
v 0.114342 6.447589 0.059060
v -0.122874 6.489133 -0.012951
v 0.257711 6.447589 -0.084962
v 0.186026 6.427612 -0.118835
v 0.114342 6.447589 -0.084962
v 0.027035 5.759113 0.267944
v 0.345018 5.759113 0.267944
v 0.494926 5.759377 -0.012951
v -0.122874 5.759377 -0.012951
v 0.345018 6.488869 -0.293846
v 0.027035 6.488869 -0.293846
v 0.345017 5.759113 -0.293846
v 0.027034 5.759113 -0.293846
v -0.400965 2.998770 -0.236268
v -0.267453 2.441945 -0.260309
v -0.321138 2.998770 -0.250309
v 0.027943 1.096808 -0.312951
v 0.027943 2.441945 -0.312951
v -0.450241 1.096808 -0.227469
v -0.400965 2.998770 0.210366
v -0.321138 2.998770 0.224407
v -0.267453 2.441945 0.234407
v 0.027943 2.441945 0.287049
v 0.027943 1.096808 0.287049
v -0.450241 1.096808 0.201567
v 0.114264 -2.508667 -0.293609
v 0.114264 -2.508667 -0.332406
v 0.261517 -2.508667 -0.291654
v 0.222554 -2.508667 -0.364893
v 0.114264 -2.508667 -0.364893
v 0.276699 -2.508667 -0.326991
v 0.493279 -5.836919 0.149484
v 0.493279 2.978431 -0.175386
v 0.493279 -5.836919 -0.175386
v 0.493279 2.978431 0.149484
v -0.123973 2.978431 0.149484
v -0.123973 -5.738897 -0.175386
v -0.123973 2.978431 -0.175386
v -0.123973 -5.738897 0.149484
v 0.114264 -5.734862 0.306504
v 0.222554 2.978431 0.338991
v 0.222554 -5.836919 0.338991
v 0.114264 2.978431 0.338991
v 0.114264 -5.836919 0.338991
v 0.114264 -5.836919 -0.364893
v 0.222554 -5.836919 -0.364893
v 0.114264 -5.734862 -0.332406
v -1.048815 -5.734862 0.097049
v -1.048815 -5.836919 -0.122951
v -1.048815 -5.734862 -0.122951
v -1.048815 -5.836919 0.097049
v 0.222554 2.978431 -0.364893
v 0.114264 2.978431 -0.364893
v 0.457507 -6.215177 0.130533
v 0.457507 -5.836919 -0.156435
v 0.457507 -6.215177 -0.156435
v 0.457507 -5.836919 0.130533
v -0.909847 -6.241662 -0.107398
v -1.031796 -5.836919 0.081496
v -0.909847 -6.241662 0.081496
v -1.031796 -5.836919 -0.107398
v 0.114264 0.427778 -0.364893
v 0.114264 0.427778 -0.332406
v 0.222554 0.427778 -0.364893
v 0.114264 0.427778 -0.293609
v 0.113000 -2.508667 -0.012951
v 0.342505 -2.508667 -0.236136
v 0.113000 0.427778 -0.012951
v 0.261517 0.427778 -0.291654
v 0.342505 0.427778 -0.236136
v 0.357916 0.427778 -0.270139
v 0.342505 -1.698366 -0.236136
v 0.261517 -1.698366 -0.291654
v 0.342505 -1.456066 -0.236136
v 0.357916 -1.456066 -0.270139
v 0.276699 -1.698366 -0.326991
v 0.114264 -5.836919 -0.316806
v 0.114264 -5.836919 0.290904
v 0.225521 -5.836919 -0.316806
v 0.225521 -5.836919 0.290904
v 0.366765 -6.274791 -0.220803
v 0.225521 -6.254507 -0.316806
v 0.114264 -6.237912 -0.316806
v -0.407052 -6.164244 -0.206808
v -0.764978 -6.241037 -0.135480
v 0.366765 -6.274791 0.194900
v 0.225521 -6.254507 0.290904
v 0.114264 -6.237912 0.290904
v -0.407052 -6.164244 0.180907
v -0.764978 -6.241037 0.109578
v 0.493279 -2.508667 -0.175386
v 0.493279 0.427778 -0.175386
v 0.114264 2.978431 0.306504
v 0.114264 -5.836919 0.306504
v 0.114264 -5.836919 -0.332406
v 0.114264 2.978431 -0.332406
v 1.269755 -1.812049 0.088493
v 1.122347 -1.812049 0.088493
v 1.196051 -1.812049 0.112441
v 1.315306 -1.812049 0.025797
v 1.315306 -1.812049 -0.051699
v 1.269754 -1.812049 -0.114395
v 1.196051 -1.812049 -0.138343
v 1.122347 -1.812049 -0.114395
v 1.076796 -1.812049 -0.051699
v 1.076796 -1.812049 0.025797
v 1.420370 -1.917651 -0.066434
v 1.360656 -1.939129 0.040532
v 1.420370 -1.917651 0.040532
v 1.360656 -1.939129 -0.066434
v 1.420370 -1.856924 -0.066434
v 1.360656 -1.822011 -0.066434
v 1.420370 -1.856924 0.040532
v 1.360656 -1.822011 0.040532
v 1.031446 -1.822011 -0.066434
v 0.983876 -1.686290 0.055989
v 1.031446 -1.822011 0.040532
v 0.983876 -1.686290 -0.081891
v 1.064919 -1.686290 0.167536
v 1.094319 -1.822011 0.127070
v 1.196051 -1.686290 0.210143
v 1.196051 -1.822011 0.160125
v 1.327183 -1.686290 0.167536
v 1.297782 -1.822011 0.127070
v 1.408227 -1.686290 0.055989
v 1.408227 -1.686290 -0.081891
v 1.327183 -1.686290 -0.193438
v 1.297782 -1.822011 -0.152972
v 1.196051 -1.686290 -0.236045
v 1.196051 -1.822011 -0.186027
v 1.064919 -1.686290 -0.193438
v 1.094319 -1.822011 -0.152972
v 1.061615 -1.884294 0.030730
v 1.076796 -1.861184 0.025797
v 1.076796 -1.861184 -0.051699
v 1.112965 -1.884294 0.101407
v 1.061615 -1.884294 -0.056632
v 1.122347 -1.861184 -0.114395
v 1.112965 -1.884294 -0.127309
v 1.196051 -1.861184 -0.138343
v 1.196051 -1.884294 -0.154305
v 1.269754 -1.861184 -0.114395
v 1.279137 -1.884294 -0.127309
v 1.315306 -1.861184 -0.051699
v 1.330487 -1.884294 -0.056632
v 1.315306 -1.861184 0.025797
v 1.330487 -1.884294 0.030730
v 1.269755 -1.861184 0.088493
v 1.279137 -1.884294 0.101407
v 1.196051 -1.861184 0.112441
v 1.196051 -1.884294 0.128403
v 1.122347 -1.861184 0.088493
v 1.330487 -1.939129 0.030730
v 1.297782 -1.939129 0.127070
v 1.330487 -1.939129 -0.056632
v 1.279137 -1.939129 0.101407
v 1.196051 -1.939129 0.160125
v 1.196051 -1.939129 0.128403
v 1.094319 -1.939129 0.127070
v 1.112965 -1.939129 0.101407
v 1.031446 -1.939129 0.040532
v 1.061615 -1.939129 0.030730
v 1.031446 -1.939129 -0.066434
v 1.061615 -1.939129 -0.056632
v 1.094319 -1.939129 -0.152972
v 1.112965 -1.939129 -0.127309
v 1.196051 -1.939129 -0.186027
v 1.196051 -1.939129 -0.154305
v 1.279137 -1.939129 -0.127309
v 1.297782 -1.939129 -0.152972
v 1.034467 -0.842860 0.039551
v 1.196051 -0.842860 0.156949
v 1.096186 -0.842861 0.124501
v 1.034467 -0.842860 -0.065453
v 1.096186 -0.842860 -0.150403
v 1.196051 -0.842860 -0.182851
v 1.295916 -0.842860 -0.150403
v 1.357636 -0.842860 -0.065453
v 1.357636 -0.842860 0.039551
v 1.295916 -0.842860 0.124501
v 1.438428 -0.529544 0.065802
v 1.509043 -0.609574 0.065802
v 1.438428 -0.678459 0.065802
v 1.509043 -0.557098 0.065802
v 1.509043 -0.609574 -0.091704
v 1.438428 -0.529544 -0.091704
v 1.438428 -0.678459 -0.091704
v 1.509043 -0.557098 -0.091704
v 0.988722 -0.882312 -0.080316
v 0.988722 -0.722911 0.054414
v 0.988722 -0.882312 0.054414
v 0.988722 -0.722911 -0.080316
v 1.067915 -0.722911 0.163414
v 1.067915 -0.882312 0.163413
v 1.196051 -0.722911 0.205048
v 1.196051 -0.882312 0.205047
v 1.324187 -0.722911 0.163413
v 1.324187 -0.882312 0.163413
v 1.403380 -0.722911 0.054414
v 1.403380 -0.882312 0.054414
v 1.403380 -0.722911 -0.080316
v 1.403380 -0.882312 -0.080316
v 1.324187 -0.722911 -0.189315
v 1.324187 -0.882312 -0.189315
v 1.196051 -0.722911 -0.230949
v 1.196051 -0.882312 -0.230949
v 1.067915 -0.722911 -0.189315
v 1.067915 -0.882312 -0.189315
v 0.953675 -0.678459 0.065802
v 0.953674 -0.678459 -0.091704
v 1.046254 -0.678459 0.193227
v 1.196051 -0.678459 0.241899
v 1.345848 -0.678459 0.193227
v 1.345848 -0.678459 -0.219129
v 1.196051 -0.678459 -0.267801
v 1.046254 -0.678459 -0.219129
v 1.299716 -0.882312 -0.046634
v 1.299716 -0.882312 0.020732
v 1.260119 -0.882312 -0.101133
v 1.196051 -0.882312 -0.121950
v 1.131983 -0.882312 -0.101133
v 1.092387 -0.882312 -0.046634
v 1.092387 -0.882312 0.020732
v 1.131983 -0.882312 0.075231
v 1.196051 -0.882312 0.096048
v 1.260119 -0.882312 0.075231
v 1.196051 -0.529544 0.156949
v 1.345848 -0.529544 0.193227
v 1.196051 -0.529544 0.241899
v 1.295916 -0.529544 0.124501
v 1.096186 -0.529544 0.124501
v 1.046254 -0.529544 0.193227
v 1.034467 -0.529544 0.039551
v 0.953675 -0.529544 0.065802
v 1.034467 -0.529544 -0.065453
v 0.953675 -0.529544 -0.091704
v 1.096186 -0.529544 -0.150403
v 1.046254 -0.529544 -0.219129
v 1.196051 -0.529544 -0.182851
v 1.196051 -0.529544 -0.267801
v 1.295916 -0.529544 -0.150403
v 1.345848 -0.529544 -0.219129
v 1.357636 -0.529544 -0.065453
v 1.357636 -0.529544 0.039551
v 0.765238 -1.891996 0.149023
v 0.606173 -1.891996 -0.174925
v 0.765238 -1.891996 -0.174925
v 0.606173 -1.891996 0.149023
v 0.765238 -1.948314 0.149023
v 0.765238 -1.948314 -0.174925
v 0.606173 -1.948314 0.149023
v 0.606173 -1.948314 -0.174925
v 0.471480 0.407861 0.062049
v 0.672651 0.407861 -0.087951
v 0.672651 0.407861 0.062049
v 0.471480 0.407861 -0.087951
v 0.672651 0.107861 -0.087951
v 0.672651 0.107861 0.062049
v 0.471480 0.107861 -0.087951
v 0.471480 0.107861 0.062049
v 0.765238 -2.423352 0.127359
v 0.471480 -2.396870 -0.153261
v 0.765238 -2.423352 -0.153261
v 0.471480 -2.396870 0.127359
v 0.765238 -2.556239 0.127359
v 0.765238 -2.556239 -0.153261
v 0.471480 -2.582721 0.127359
v 0.471480 -2.582721 -0.153261
v 0.865695 -0.180933 0.084519
v 0.865695 -1.799595 -0.110421
v 0.865695 -1.799595 0.084519
v 0.865695 -0.180933 -0.110421
v 0.793467 -0.180933 0.084519
v 0.471480 -1.799595 0.084519
v 0.471480 -0.180933 0.084519
v 0.793467 -1.799595 0.084519
v 0.471480 -0.180933 -0.110421
v 0.793467 -1.799595 -0.110421
v 0.793467 -0.180933 -0.110421
v 0.471480 -1.799595 -0.110421
v 0.829470 -0.180933 -0.140675
v 0.829470 -1.799595 -0.140675
v 0.829470 -1.799595 0.114773
v 0.829470 -0.180933 0.114773
v 0.734077 -2.434928 0.104226
v 0.734077 -1.939577 -0.130128
v 0.734077 -2.434928 -0.130128
v 0.734077 -1.939577 0.104226
v 0.637335 -1.939577 0.104226
v 0.637335 -2.434928 -0.130128
v 0.637335 -1.939577 -0.130128
v 0.637335 -2.434928 0.104226
v 0.997488 -0.927021 -0.077468
v 0.997488 -0.869120 0.051566
v 0.997488 -0.927021 0.051566
v 0.997488 -0.869120 -0.077468
v 1.073333 -0.869120 0.155956
v 1.073333 -0.927021 0.155956
v 1.196051 -0.869120 0.195830
v 1.196051 -0.927021 0.195830
v 1.318769 -0.869120 0.155956
v 1.318769 -0.927021 0.155956
v 1.394614 -0.869120 0.051566
v 1.394614 -0.927021 0.051566
v 1.394613 -0.869120 -0.077468
v 1.394613 -0.927021 -0.077468
v 1.318769 -0.869120 -0.181858
v 1.318769 -0.927021 -0.181858
v 1.196051 -0.869120 -0.221732
v 1.196051 -0.927021 -0.221732
v 1.073332 -0.869120 -0.181858
v 1.073332 -0.927021 -0.181858
v 0.344631 5.783195 -0.104522
v 0.344631 1.138280 0.078620
v 0.344631 5.783195 0.078620
v 0.344631 1.138280 -0.104522
v 0.186026 5.783195 -0.196092
v 0.186026 1.138280 -0.196092
v 0.027422 5.783195 -0.104522
v 0.027422 1.138280 -0.104522
v 0.027422 5.783195 0.078620
v 0.027422 1.138280 0.078620
v 0.186026 5.783195 0.170190
v 0.186026 1.138280 0.170190
v -0.108680 -4.728775 -0.112951
v -0.435981 -4.916991 0.087049
v -0.435981 -4.916991 -0.112951
v -0.108680 -4.728775 0.087049
v -0.393080 -4.954031 -0.112951
v -0.088161 -4.774368 0.087049
v -0.088161 -4.774368 -0.112951
v -0.393080 -4.954031 0.087049
v -0.551283 -5.759239 -0.112951
v -0.551283 -5.759239 0.087049
v -0.600735 -5.751865 0.087049
v -0.600735 -5.751865 -0.112951
v -0.577553 -5.755325 -0.052951
v -0.416896 -4.937264 0.027049
v -0.416896 -4.937264 -0.052951
v -0.577553 -5.755325 0.027049
v -0.097372 -4.751563 -0.052951
v -0.097372 -4.751563 0.027049
v -0.204886 -4.211976 0.027049
v -0.097372 -3.882637 0.027049
v -0.317899 -4.355561 0.027049
v -0.836110 -4.580653 0.027049
v -1.046184 -5.754838 0.027049
v -0.204886 -4.211976 -0.052951
v -0.097372 -3.882637 -0.052951
v -0.317899 -4.355561 -0.052951
v -0.836110 -4.580653 -0.052951
v -1.046184 -5.754838 -0.052951
v -0.464598 -2.293341 -0.137951
v -0.825194 -2.293341 0.112049
v -0.825194 -2.293341 -0.137951
v -0.464488 -2.293341 0.112049
v -0.825194 -2.335466 -0.137951
v -0.825194 -2.335466 0.112049
v -0.464267 -1.663902 -0.137951
v -0.464267 -1.663902 0.112049
v -1.471077 -3.349385 0.037293
v -1.645301 -3.139264 0.112049
v -1.481913 -3.239105 0.112049
v -1.645301 -3.139264 -0.137951
v -1.471077 -3.349385 -0.063195
v -1.481913 -3.239105 -0.137951
v -1.688332 -2.752201 0.112049
v -1.643375 -2.700076 -0.063195
v -1.643375 -2.700076 0.037293
v -1.688332 -2.752201 -0.137951
v -0.464708 -2.601155 -0.137951
v -0.097372 -3.055745 -0.063195
v -0.097372 -2.910114 -0.137951
v -0.464929 -2.719105 -0.063195
v -0.097372 -3.055745 0.037293
v -0.464929 -2.719105 0.037293
v -0.097372 -2.910114 0.112049
v -0.464708 -2.601155 0.112049
v -0.992533 -3.075668 -0.063195
v -0.992533 -3.075668 0.037293
v -0.555750 -2.719105 0.037293
v -0.555752 -2.719105 -0.063195
v -1.012614 -2.976675 -0.137951
v -0.602190 -2.634097 -0.137951
v -0.602190 -2.634097 0.112049
v -1.012614 -2.976675 0.112049
v -0.097372 -1.663902 -0.137951
v -1.492750 -2.745257 -0.137951
v -1.349988 -2.609549 -0.137951
v -1.239961 -2.598669 -0.137951
v -1.115422 -2.459562 -0.137951
v -0.921721 -2.459231 -0.137951
v -0.097372 -1.663902 0.112049
v -0.921721 -2.459231 0.112049
v -1.115422 -2.459562 0.112049
v -1.239961 -2.598669 0.112049
v -1.349988 -2.609549 0.112049
v -1.492750 -2.745257 0.112049
v -0.921721 -2.407105 0.037293
v -1.115422 -2.407436 0.037293
v -0.921721 -2.407105 -0.063195
v -1.115422 -2.407436 -0.063195
v -1.239961 -2.546544 0.037293
v -1.349988 -2.557423 0.037293
v -1.239961 -2.546544 -0.063195
v -1.349988 -2.557423 -0.063195
v -1.492750 -2.693131 0.037293
v -1.492750 -2.693131 -0.063195
v 0.043903 -1.698366 0.293773
v 0.043903 0.574997 -0.319675
v 0.043903 -1.698366 -0.319675
v 0.043903 0.574997 0.293773
v -0.473469 0.336958 0.283949
v -0.832254 -1.698366 -0.309851
v -0.473469 0.336958 -0.309851
v -0.832254 -1.698366 0.283949
v -0.067949 -1.698366 0.227049
v -0.357749 0.393994 0.227049
v -0.067949 0.526466 0.227049
v -0.711221 -1.698366 0.227049
v -0.067949 -1.698366 -0.252951
v -0.067949 0.526466 -0.252951
v -0.357749 0.393994 -0.252951
v -0.711221 -1.698366 -0.252951
v -0.097372 1.017418 -0.062951
v -0.284450 0.945057 0.037049
v -0.284450 0.945057 -0.062951
v -0.097372 1.017418 0.037049
v -0.284450 0.736060 -0.062951
v -0.097372 0.736060 0.037049
v -0.097372 0.736060 -0.062951
v -0.284450 0.736060 0.037049
v -0.101753 2.600160 0.105404
v -0.304198 2.600160 -0.131306
v -0.101753 2.600160 -0.131306
v -0.304198 2.600160 0.105404
v -0.101753 2.418513 0.105404
v -0.304198 2.418513 0.105404
v -0.304198 2.418513 -0.131306
v -0.101753 2.418513 -0.131306
v -0.093823 3.680583 0.110053
v -0.123966 3.680583 -0.135955
v -0.093823 3.680583 -0.135955
v -0.123966 3.680583 0.110053
v -0.093823 3.480582 0.110053
v -0.093823 3.480582 -0.135955
v -0.123966 3.480582 -0.135955
v -0.123966 3.480582 0.110053
v -0.154928 3.270347 0.110053
v -0.154928 2.673632 -0.135955
v -0.154928 3.270347 -0.135955
v -0.154928 2.673632 0.110053
v -0.124785 2.673632 0.110053
v -0.124785 3.270347 -0.135955
v -0.124785 2.673632 -0.135955
v -0.124785 3.270347 0.110053
v 0.591097 3.786986 0.046184
v 0.486136 3.786986 -0.072086
v 0.591097 3.786986 -0.072086
v 0.486136 3.786986 0.046184
v 0.591097 3.651109 0.046184
v 0.486136 3.651109 0.046184
v 0.486136 3.651109 -0.072086
v 0.591097 3.651109 -0.072086
v 0.486136 3.344488 0.024058
v 0.591097 3.625615 0.024058
v 0.591097 3.344488 0.024058
v 0.486136 3.625615 0.024058
v 0.591097 3.344488 -0.049959
v 0.486136 3.625615 -0.049960
v 0.486136 3.344488 -0.049959
v 0.591097 3.625615 -0.049960
v 0.486136 3.294614 0.091890
v 0.591097 3.294614 0.091890
v 0.486136 3.171623 0.051396
v 0.591097 3.171623 0.051396
v 0.591097 3.171623 -0.077296
v 0.486136 3.171623 -0.077296
v 0.486136 3.294614 -0.117792
v 0.591097 3.294614 -0.117792
v 0.591097 3.260616 -0.012951
v 0.493279 3.849388 0.110053
v 0.463135 3.849388 -0.135955
v 0.493279 3.849388 -0.135955
v 0.463135 3.849388 0.110053
v 0.493279 2.978431 0.110053
v 0.493279 2.978431 -0.135955
v 0.344631 3.011084 0.110053
v 0.344631 2.978675 -0.135955
v 0.344631 3.011084 -0.135955
v 0.344631 2.978675 0.110053
v 0.463135 3.010841 -0.135955
v 0.463135 3.010841 0.110053
v 0.976372 -0.867825 0.123932
v 0.976372 -0.867825 -0.149834
v 0.976372 -1.711387 0.123932
v 0.976372 -1.711387 -0.149834
v 0.976373 -1.711387 -0.149834
v 0.976373 -1.711387 0.123932
v 0.976373 -0.867825 0.123932
v 0.976373 -0.867825 -0.149834
v 0.793467 -0.867825 -0.149834
v 0.793467 -0.867825 0.123932
v 0.793466 -1.711387 0.123932
v 0.793466 -1.711387 -0.149834
v 0.114264 -2.525897 -0.292428
v 0.261517 0.390940 -0.292428
v 0.114264 0.390940 -0.292428
v 0.261517 -2.525897 -0.292428
v 0.114264 0.390940 -0.364893
v 0.114264 0.427778 -0.292428
v 0.114264 0.427778 -0.364893
v 0.261517 0.427778 -0.364893
v 0.261517 0.427778 -0.292428
v 0.261517 0.390940 -0.364893
v 0.009766 0.390940 -0.501999
v 0.009766 0.427778 -0.501999
v 0.457507 -2.525897 -0.156572
v 0.457507 0.427778 -0.156572
v -0.082081 0.427778 -0.156435
v -0.082081 -2.525897 -0.156435
v -0.082081 0.427778 0.130533
v 0.114264 0.427778 0.266526
v 0.261517 0.427778 0.266526
v 0.457507 0.427778 0.130670
v 0.102814 0.390940 -0.573116
v 0.102814 0.427778 -0.573116
v 0.029187 0.427778 -0.573116
v 0.029187 0.390940 -0.573116
v -0.503770 0.433280 0.382143
v -0.732103 0.433280 0.381955
v -0.732103 -0.350539 0.381955
v -0.503770 -0.350539 0.382143
v -0.504058 0.433280 0.532143
v -0.732391 0.433280 0.531955
v -0.732391 -0.350539 0.531955
v -0.504058 -0.350539 0.532143
v 0.527260 0.020028 -0.012951
v 0.607260 0.020028 -0.012951
v 0.567260 0.020028 0.027049
v 0.567260 0.020028 -0.052951
v -0.540330 0.597278 0.455687
v 0.004984 0.557271 0.415706
v -0.540327 0.557278 0.415687
v 0.125024 0.557380 0.402272
v -0.540333 0.517278 0.455687
v -0.592911 0.541279 0.415681
v -0.566880 0.510638 0.455680
v -0.592919 0.541275 0.495680
v -0.618950 0.571916 0.455681
v 0.567260 0.527057 -0.016993
v 0.527260 0.439538 -0.012951
v 0.527260 0.502655 0.012601
v 0.567260 0.439538 -0.052951
v 0.567260 0.439538 0.027049
v 0.567260 0.478253 0.042195
v 0.607260 0.502655 0.012601
v 0.607260 0.439538 -0.012951
v 0.567260 0.577259 0.040039
v 0.527260 0.541332 0.057625
v 0.607260 0.541332 0.057625
v 0.567260 0.505406 0.075212
v 0.567260 0.597501 0.119193
v 0.527260 0.557502 0.119114
v 0.607260 0.557502 0.119114
v 0.567260 0.517503 0.119036
v 0.508339 0.597501 0.205881
v 0.477328 0.557502 0.180616
v 0.539449 0.557502 0.231024
v 0.508438 0.517503 0.205759
v 0.268947 0.597501 0.374833
v 0.241916 0.557502 0.345348
v 0.296092 0.557502 0.404212
v 0.269062 0.517503 0.374727
v -0.659749 0.505789 0.455673
v -0.619755 0.498166 0.415673
v -0.619755 0.498158 0.495672
v -0.579762 0.490535 0.455672
v -0.659749 0.424695 0.455665
v -0.619755 0.424695 0.415665
v -0.619755 0.424695 0.495664
v -0.579762 0.424695 0.455665
v 0.004975 0.557271 0.495705
v -0.540337 0.557278 0.495686
v 0.004981 0.597270 0.455706
v 0.140966 0.597380 0.438957
v 0.004977 0.517272 0.455705
v 0.141110 0.517381 0.438895
v 0.157053 0.557380 0.475580
v -1.522866 0.051741 0.187049
v -1.704360 -1.561181 -0.212951
v -1.522866 0.051741 -0.212951
v -1.704360 -1.561181 0.187049
v -0.306277 -1.561181 -0.212951
v -0.306277 0.051741 -0.212951
v -0.306277 0.051741 0.187049
v -0.306277 -1.561181 0.187049
v 1.528189 -0.599074 0.032043
v 1.526736 -0.553406 0.032043
v 1.576851 -0.544304 0.028274
v 1.499776 -0.592410 0.032043
v 1.499776 -0.592410 -0.057945
v 1.526736 -0.553406 -0.057945
v 1.528189 -0.599074 -0.057945
v 1.576851 -0.544304 -0.054176
v 1.576851 -0.544304 0.059204
v 1.547876 -0.463272 0.193227
v 1.596221 -0.461722 0.175954
v 1.526736 -0.553406 0.065802
v 1.582083 -0.317433 0.241899
v 1.627562 -0.328100 0.220548
v 1.616289 -0.171594 0.193227
v 1.658902 -0.194479 0.175954
v 1.637430 -0.081461 0.065802
v 1.678272 -0.111896 0.059204
v 1.637430 -0.081461 -0.091704
v 1.678272 -0.111896 -0.085106
v 1.616289 -0.171594 -0.219129
v 1.658902 -0.194479 -0.201856
v 1.582083 -0.317433 -0.267801
v 1.627562 -0.328100 -0.246450
v 1.547876 -0.463272 -0.219129
v 1.596221 -0.461722 -0.201856
v 1.526736 -0.553406 -0.091704
v 1.576851 -0.544304 -0.085106
v 1.582083 -0.317433 -0.012951
v 1.627562 -0.328100 -0.012951
v 1.440970 -1.904027 0.017722
v 1.438934 -1.867304 0.017722
v 1.480710 -1.886500 0.017722
v 1.415597 -1.877597 0.017722
v 1.438934 -1.867304 -0.043624
v 1.440970 -1.904027 -0.043624
v 1.480710 -1.886500 -0.043624
v 1.415597 -1.877597 -0.043624
v 1.440970 -1.904027 0.040736
v 1.506179 -1.944246 0.127604
v 1.466438 -1.961773 0.127604
v 1.480710 -1.886500 0.040736
v 1.547389 -2.037680 0.160784
v 1.507648 -2.055208 0.160784
v 1.588598 -2.131115 0.127604
v 1.548858 -2.148643 0.127604
v 1.614067 -2.188861 0.040736
v 1.574327 -2.206388 0.040736
v 1.614067 -2.188861 -0.066638
v 1.574327 -2.206388 -0.066638
v 1.588598 -2.131115 -0.153506
v 1.548858 -2.148643 -0.153506
v 1.547389 -2.037680 -0.186686
v 1.507648 -2.055208 -0.186686
v 1.506179 -1.944246 -0.153506
v 1.466438 -1.961773 -0.153506
v 1.480710 -1.886500 -0.066638
v 1.440970 -1.904027 -0.066638
v 1.507648 -2.055208 -0.012951
v 1.547389 -2.037680 -0.012951
v -0.755489 -1.914468 0.037049
v -0.658877 -2.057672 0.037049
v -0.781926 -1.940797 0.037049
v -0.632852 -1.988229 0.037049
v -0.392159 -2.110489 0.037049
v -0.392159 -1.986169 0.037049
v -0.658877 -2.057672 -0.062951
v -0.755489 -1.914468 -0.062951
v -0.781926 -1.940797 -0.062951
v -0.632852 -1.988229 -0.062951
v -0.392159 -2.110489 -0.062951
v -0.392159 -1.986169 -0.062951
v -0.392159 -1.986169 -0.012951
v 1.566950 -1.784012 -0.234382
v 1.475945 -1.784012 -0.181840
v 1.566950 -1.784012 -0.129299
v 1.475945 -1.784012 -0.286924
v 1.384940 -1.784012 -0.234382
v 1.384940 -1.784012 -0.129299
v 1.475945 -1.784012 -0.076757
v 1.566950 -1.083467 -0.129299
v 1.475945 -1.083467 -0.181840
v 1.566950 -1.083467 -0.234382
v 1.475945 -1.083467 -0.076757
v 1.384940 -1.083467 -0.129299
v 1.384940 -1.083467 -0.234382
v 1.475945 -1.083467 -0.286924
v -0.806066 -1.663902 0.037049
v -0.909094 -1.887862 -0.062951
v -0.806066 -1.663902 -0.062951
v -0.909094 -1.887862 0.037049
v -0.908809 -2.163166 -0.062951
v -0.908809 -2.163166 0.037049
v -0.799493 -2.322254 0.037049
v -0.799493 -2.322254 -0.062951
v -0.864011 -2.152604 0.037049
v -0.724961 -2.322254 0.037049
v -0.864572 -1.899530 0.037049
v -0.731534 -1.663902 0.037049
v -0.864572 -1.899530 -0.062951
v -0.731534 -1.663902 -0.062951
v -0.864011 -2.152604 -0.062951
v -0.724961 -2.322254 -0.062951
v 0.958160 -1.686290 -0.090246
v 0.958160 -1.246823 0.064344
v 0.958160 -1.686290 0.064344
v 0.958160 -1.246823 -0.090246
v 1.049026 -1.246823 0.189411
v 1.049026 -1.686290 0.189411
v 1.196051 -1.246823 0.237182
v 1.196051 -1.686290 0.237182
v 1.343076 -1.246823 0.189411
v 1.343076 -1.686290 0.189411
v 1.433942 -1.246823 0.064344
v 1.433942 -1.686290 0.064344
v 1.433942 -1.246823 -0.090247
v 1.433942 -1.686290 -0.090247
v 1.343076 -1.246823 -0.215313
v 1.343076 -1.686290 -0.215313
v 1.196051 -1.246823 -0.263084
v 1.196051 -1.686290 -0.263084
v 1.049026 -1.246823 -0.215313
v 1.049026 -1.686290 -0.215313
v 1.294067 -1.686290 0.121957
v 1.196051 -1.686290 0.153805
v 1.098034 -1.686290 0.121957
v 1.037457 -1.686290 0.038579
v 1.037457 -1.686290 -0.064481
v 1.098034 -1.686290 -0.147859
v 1.196051 -1.686290 -0.179707
v 1.294067 -1.686290 -0.147859
v 1.354645 -1.686290 -0.064481
v 1.354645 -1.686290 0.038579
v 1.269563 -1.686290 0.088230
v 1.196051 -1.686290 0.112116
v 1.122539 -1.686290 0.088230
v 1.077105 -1.686290 0.025697
v 1.077105 -1.686290 -0.051599
v 1.122539 -1.686290 -0.114132
v 1.196051 -1.686290 -0.138018
v 1.269563 -1.686290 -0.114132
v 1.314996 -1.686290 -0.051599
v 1.314996 -1.686290 0.025697
v 1.196051 -1.246823 0.112116
v 1.269563 -1.246823 0.088230
v 1.122539 -1.246823 0.088230
v 1.077105 -1.246823 0.025697
v 1.077105 -1.246823 -0.051599
v 1.122539 -1.246823 -0.114132
v 1.196051 -1.246823 -0.138018
v 1.269563 -1.246823 -0.114132
v 1.314996 -1.246823 -0.051599
v 1.314996 -1.246823 0.025697
v 1.122539 -0.842554 0.088230
v 1.077105 -0.842554 0.025697
v 1.077105 -0.842554 -0.051599
v 1.122538 -0.842554 -0.114132
v 1.196051 -0.842554 -0.138018
v 1.269563 -0.842554 -0.114132
v 1.314996 -0.842554 -0.051599
v 1.314996 -0.842554 0.025697
v 1.269563 -0.842554 0.088230
v 1.196051 -0.842554 0.112116
v 0.102815 0.427778 -0.573116
v 0.102815 0.390940 -0.573116
v 0.029188 0.427778 -0.573116
v 0.029188 0.390940 -0.573116
v 0.004976 0.557271 0.495705
v -0.540336 0.557278 0.495686
v 0.004982 0.597270 0.455706
v 0.140967 0.597380 0.438957
v 0.157054 0.557380 0.475580
v 0.141111 0.517381 0.438895
v 0.004978 0.517272 0.455705
v -0.732390 0.433280 0.531955
v -0.504057 0.433280 0.532143
v -0.732390 -0.350539 0.531955
v -0.504057 -0.350539 0.532143
vn -0.0000 -0.0000 1.0000
vn -0.0000 -0.0000 -1.0000
vn -0.0000 -1.0000 -0.0000
vn -0.9577 -0.0000 -0.2877
vn -0.7149 -0.0000 -0.6992
vn -0.7150 -0.0000 -0.6992
vn -0.5878 -0.0000 -0.8090
vn -0.9511 -0.0000 -0.3090
vn -0.9577 -0.0000 0.2877
vn -0.7149 -0.0000 0.6992
vn -0.5878 -0.0000 0.8090
vn -0.9511 -0.0000 0.3090
vn 0.9577 -0.0000 -0.2877
vn 0.7150 -0.0000 -0.6992
vn 0.5878 -0.0000 -0.8090
vn 0.7149 -0.0000 -0.6992
vn 0.9511 -0.0000 -0.3090
vn 0.9511 -0.0000 0.3090
vn 0.5878 -0.0000 0.8090
vn 0.7149 -0.0000 0.6992
vn 0.9577 -0.0000 0.2877
vn -0.0000 1.0000 -0.0000
vn -0.1677 0.9803 -0.1046
vn -0.2490 0.9684 0.0152
vn -0.0000 0.9949 -0.1009
vn 0.1677 0.9803 -0.1046
vn -0.4823 0.8755 0.0286
vn 0.4823 0.8755 0.0286
vn 0.2490 0.9684 0.0152
vn -0.2490 0.9684 -0.0152
vn -0.1677 0.9803 0.1046
vn -0.4823 0.8755 -0.0286
vn -0.0000 0.9949 0.1009
vn 0.1677 0.9803 0.1047
vn 0.4823 0.8755 -0.0286
vn 0.1663 0.9806 0.1038
vn 0.2490 0.9684 -0.0152
vn 0.8822 -0.0000 0.4708
vn 1.0000 -0.0000 0.0002
vn 1.0000 -0.0000 -0.0000
vn 0.8822 -0.0000 -0.4708
vn -0.8822 -0.0000 -0.4708
vn -1.0000 -0.0000 -0.0000
vn -0.8822 -0.0000 0.4708
vn -0.0000 -1.0000 -0.0001
vn -0.0000 -1.0000 0.0002
vn -0.5483 0.8363 -0.0000
vn -0.7764 0.6302 -0.0000
vn 0.5483 0.8363 -0.0000
vn 0.7764 0.6302 -0.0000
vn -0.1751 0.0005 -0.9846
vn -0.1751 0.0005 -0.9845
vn -0.1756 0.0009 -0.9845
vn -0.1752 0.0004 -0.9845
vn -0.1766 0.0008 -0.9843
vn -0.1771 -0.0000 -0.9842
vn -0.9997 0.0259 -0.0000
vn 0.9954 0.0960 -0.0000
vn -0.1773 -0.0000 0.9842
vn -0.1771 -0.0000 0.9842
vn -0.1739 0.0008 0.9848
vn -0.1732 0.0010 0.9849
vn -0.5503 -0.0000 0.8350
vn 0.5735 -0.0000 0.8192
vn -0.5503 -0.0000 -0.8350
vn -0.1772 -0.0000 0.9842
vn -0.1772 -0.0000 -0.9842
vn -0.9575 -0.2885 -0.0000
vn 1.0000 -0.0000 0.0045
vn 1.0000 -0.0000 0.0013
vn -0.5654 -0.0000 0.8248
vn -0.6972 -0.0000 -0.7169
vn 0.0054 0.9998 0.0177
vn 0.0064 0.9994 0.0353
vn 0.0054 0.9998 -0.0177
vn 0.0064 0.9994 -0.0353
vn -0.9108 -0.0000 -0.4128
vn -0.8963 0.1891 -0.4011
vn -0.8945 0.1887 -0.4054
vn -0.9004 0.1890 -0.3919
vn -0.9022 0.1894 -0.3876
vn -0.9188 -0.0000 -0.3947
vn 0.5734 -0.0000 -0.8192
vn 0.5786 -0.0000 -0.8156
vn 0.5697 0.0010 -0.8219
vn 0.2941 -0.0000 -0.9558
vn -0.0692 -0.0000 -0.9976
vn -0.1292 -0.0148 -0.9915
vn -0.1901 -0.0325 -0.9812
vn -0.1845 -0.0516 -0.9815
vn -0.1869 -0.0553 -0.9808
vn -0.1898 -0.0572 -0.9802
vn 0.5698 0.0010 0.8218
vn 0.5786 -0.0000 0.8156
vn 0.2961 0.0009 0.9552
vn 0.2960 0.0008 0.9552
vn -0.0692 -0.0000 0.9976
vn -0.1292 -0.0148 0.9915
vn -0.1901 -0.0326 0.9812
vn -0.1845 -0.0516 0.9815
vn -0.1870 -0.0553 0.9808
vn -0.1898 -0.0572 0.9802
vn 0.5735 -0.0000 -0.8192
vn 0.5491 -0.8358 -0.0000
vn 0.2175 -0.9761 -0.0000
vn 0.2174 -0.9761 -0.0000
vn -0.1451 -0.9894 -0.0000
vn -0.1455 -0.9894 -0.0000
vn -0.1446 -0.9895 -0.0000
vn -0.1447 -0.9895 -0.0000
vn 0.0355 -0.9994 -0.0000
vn 0.1076 -0.9942 -0.0000
vn 0.0043 -1.0000 -0.0000
vn 0.3385 -0.9410 -0.0000
vn -0.8924 -0.3458 -0.2899
vn -0.8924 -0.3458 0.2900
vn -0.8924 -0.3458 -0.2900
vn -0.5515 -0.3458 0.7591
vn -0.0000 -0.3458 0.9383
vn 0.5515 -0.3458 0.7591
vn 0.8924 -0.3458 0.2900
vn 0.8924 -0.3458 0.2899
vn 0.8924 -0.3458 -0.2900
vn 0.5515 -0.3458 -0.7591
vn -0.0000 -0.3458 -0.9383
vn -0.5515 -0.3458 -0.7591
vn 0.7825 -0.5683 -0.2543
vn 0.7825 -0.5683 0.2543
vn 0.4836 -0.5683 -0.6657
vn 0.4836 -0.5683 0.6657
vn -0.0000 -0.5683 0.8228
vn -0.4836 -0.5683 0.6657
vn -0.7825 -0.5683 0.2543
vn -0.7825 -0.5683 -0.2543
vn -0.4836 -0.5683 -0.6657
vn -0.0000 -0.5683 -0.8228
vn 0.8674 0.4976 -0.0000
vn 0.5047 0.8633 -0.0000
vn -0.3090 -0.0000 -0.9511
vn 0.8090 -0.0000 -0.5878
vn 0.8090 -0.0000 0.5878
vn -0.8090 -0.0000 -0.5878
vn 0.3635 0.9316 -0.0000
vn -0.7322 -0.6382 -0.2379
vn -0.7322 -0.6382 0.2379
vn -0.4525 -0.6382 0.6228
vn -0.0000 -0.6382 0.7699
vn 0.4525 -0.6382 0.6228
vn 0.7322 -0.6382 0.2379
vn 0.7322 -0.6382 -0.2379
vn 0.4525 -0.6382 -0.6228
vn -0.0000 -0.6382 -0.7698
vn -0.4525 -0.6382 -0.6228
vn 0.9215 -0.3884 -0.0000
vn 0.6983 -0.7158 -0.0000
vn 0.0898 0.9960 -0.0000
vn 0.0898 -0.9960 -0.0000
vn -0.6433 -0.0000 -0.7656
vn -0.6433 -0.0000 0.7656
vn 0.6410 -0.0000 -0.7675
vn 0.6410 -0.0000 0.7675
vn 0.5000 -0.0000 -0.8660
vn -0.5000 -0.0000 -0.8660
vn -0.5000 -0.0000 0.8660
vn 0.5000 -0.0000 0.8660
vn -0.4985 0.8669 -0.0000
vn 0.5076 -0.8616 -0.0000
vn 0.9812 -0.1928 -0.0000
vn -0.9811 0.1936 -0.0000
vn 0.9813 -0.1927 -0.0000
vn 0.5025 -0.8646 -0.0000
vn -0.9844 0.1761 -0.0000
vn -0.8813 0.4726 -0.0000
vn -0.6631 0.7485 -0.0000
vn -0.5422 0.8403 -0.0000
vn -0.6106 0.7919 -0.0000
vn -0.8813 0.4725 -0.0000
vn -0.9506 0.3103 -0.0000
vn -1.0000 -0.0002 -0.0002
vn -0.6877 -0.6698 0.2799
vn -0.3366 -0.5508 0.7638
vn -0.8878 -0.4046 0.2191
vn -0.8094 -0.5464 -0.2153
vn -0.6165 -0.6625 -0.4255
vn -0.3366 -0.5508 -0.7638
vn -0.9027 0.4303 -0.0000
vn -0.7573 0.6531 -0.0000
vn -0.9878 0.1555 -0.0000
vn -0.3975 -0.4525 -0.7983
vn -0.5994 -0.6647 -0.4459
vn -0.5994 -0.6647 -0.4460
vn -0.5994 -0.6647 0.4459
vn -0.3975 -0.4525 0.7983
vn -0.5994 -0.6647 0.4460
vn 0.4432 -0.7781 0.4451
vn 0.4432 -0.7782 -0.4450
vn 0.5095 -0.7402 -0.4388
vn 0.5095 -0.7402 0.4388
vn 0.3247 -0.8255 0.4617
vn 0.3247 -0.8255 -0.4616
vn 0.2973 -0.5256 -0.7971
vn 0.3497 -0.5066 -0.7881
vn 0.2457 -0.5398 -0.8051
vn 0.0835 -0.5786 -0.8113
vn 0.0470 -0.8884 -0.4566
vn 0.0470 -0.8884 0.4566
vn 0.0835 -0.5786 0.8113
vn 0.2457 -0.5398 0.8051
vn 0.3497 -0.5066 0.7881
vn 0.2973 -0.5256 0.7971
vn -0.3631 0.7643 0.5329
vn -0.3949 0.7536 0.5255
vn -0.3555 0.8903 0.2846
vn -0.3206 0.9204 0.2235
vn -0.2455 0.9267 -0.2845
vn -0.4870 0.8444 -0.2232
vn -0.3631 0.7643 -0.5329
vn -0.3949 0.7536 -0.5255
vn -0.6557 0.7429 -0.1348
vn -0.6800 0.7046 0.2029
vn -0.3998 0.7519 0.5243
vn -0.4884 0.8148 0.3124
vn -0.3450 0.9118 0.2228
vn -0.3870 0.8674 -0.3127
vn -0.4735 0.8522 -0.2226
vn -0.3998 0.7519 -0.5243
vn -0.0337 0.8252 0.5638
vn -0.3389 0.7718 0.5381
vn -0.3815 0.8810 0.2798
vn -0.0441 0.9558 0.2905
vn -0.0452 0.9802 -0.1927
vn -0.3708 0.8517 -0.3703
vn -0.0337 0.8252 -0.5638
vn -0.3389 0.7718 -0.5381
vn -0.9848 0.1736 -0.0000
vn -0.5123 -0.0000 -0.8588
vn -0.5123 -0.0000 0.8588
vn 0.4470 -0.0771 -0.8912
vn 0.4469 -0.0771 -0.8913
vn 0.4470 -0.0771 0.8912
vn -0.3980 0.9174 -0.0000
vn -0.4068 0.9135 -0.0000
vn -0.4069 0.9135 -0.0000
vn -0.4290 0.9033 -0.0000
vn -0.4421 0.8970 -0.0000
vn -0.3608 0.9327 -0.0000
vn -0.9893 0.1457 -0.0000
vn 0.9893 -0.1457 -0.0000
vn -0.0000 -0.6555 0.7552
vn -0.0000 -0.6555 -0.7552
vn -0.0000 0.8057 0.5924
vn -0.0000 0.3045 0.9525
vn -0.0000 0.3044 0.9525
vn -0.0000 -0.8102 0.5862
vn -0.0000 -0.8102 -0.5862
vn -0.0000 0.3044 -0.9525
vn -0.0000 0.8057 -0.5924
vn 0.0021 1.0000 -0.0000
vn -0.8660 -0.0000 -0.5000
vn -0.8660 -0.0000 0.5000
vn 0.8660 -0.0000 -0.5000
vn 0.8660 -0.0000 0.5000
vn -0.9085 0.4179 -0.0000
vn -0.9588 0.2841 -0.0000
vn -0.9899 0.1415 -0.0000
vn -0.9549 -0.2970 -0.0000
vn -0.8242 -0.5663 -0.0000
vn 0.9415 -0.3370 -0.0000
vn 0.8708 -0.4917 -0.0000
vn 0.9415 -0.3369 -0.0000
vn 0.9859 -0.1673 -0.0000
vn 0.9745 0.2243 -0.0000
vn 0.8950 0.4462 -0.0000
vn 0.7734 0.6339 -0.0000
vn 0.8949 0.4463 -0.0000
vn -0.7953 -0.0000 0.6062
vn 0.7953 -0.0000 -0.6062
vn 0.5697 -0.0000 -0.8219
vn -0.5694 -0.0000 -0.8221
vn -0.9647 -0.0000 -0.2634
vn -0.3921 -0.0000 -0.9199
vn -0.7842 -0.0000 -0.6205
vn -0.7842 -0.0000 -0.6206
vn -0.0002 -0.0000 1.0000
vn -1.0000 -0.0017 -0.0007
vn 1.0000 0.0006 0.0024
vn -0.0640 0.0001 -0.9980
vn 0.0067 0.0022 -1.0000
vn 0.1544 -0.9880 -0.0000
vn -0.0028 -1.0000 0.0017
vn 0.0066 0.0022 1.0000
vn 0.0590 -0.0001 0.9983
vn 0.2841 -0.0002 0.9588
vn -0.0034 1.0000 0.0023
vn -0.1411 0.9900 -0.0000
vn -0.0056 1.0000 0.0022
vn 0.0066 0.0021 1.0000
vn -0.5995 0.8004 -0.0000
vn 0.6128 -0.7902 -0.0000
vn -0.0000 -0.5801 0.8145
vn 1.0000 0.0008 0.0025
vn -0.0000 -0.1964 0.9805
vn -0.0000 0.1927 -0.9813
vn -0.0000 0.5834 -0.8122
vn -1.0000 0.0008 0.0025
vn -1.0000 -0.0019 -0.0007
vn -0.0000 -0.8842 0.4670
vn 1.0000 0.0007 0.0025
vn -1.0000 0.0007 0.0025
vn -0.0000 0.8859 -0.4639
vn -0.0083 -0.9893 0.1456
vn 0.9477 -0.0007 0.3190
vn -0.9571 -0.0004 -0.2897
vn -0.0081 0.9928 -0.1193
vn -0.0092 -0.9998 0.0163
vn 0.7019 -0.0002 0.7122
vn -0.7262 0.0002 -0.6875
vn -0.0088 0.9998 0.0166
vn 0.5106 -0.0002 0.8598
vn -0.5169 0.0002 -0.8561
vn -0.2941 0.0002 -0.9558
vn 0.9609 -0.2768 -0.0000
vn -0.9600 0.2801 -0.0000
vn 1.0000 -0.0000 0.0001
vn -0.0000 -0.0001 1.0000
vn -0.0000 0.0001 -1.0000
vn -0.0027 -1.0000 0.0017
vn -0.2939 0.0002 -0.9558
vn -0.0640 0.0001 -0.9979
vn -0.0033 1.0000 0.0024
vn 0.0002 -0.0000 -1.0000
vn -0.9937 0.1118 -0.0000
vn 0.0373 0.0012 0.9993
vn 0.0746 0.0024 0.9972
vn -0.8226 0.5686 -0.0000
vn -0.9140 0.4057 -0.0000
vn 0.0373 0.0012 -0.9993
vn 0.0746 0.0024 -0.9972
vn 0.7476 -0.6642 -0.0000
vn 0.3022 -0.9533 -0.0000
vn 0.3022 -0.9532 -0.0000
vn -0.2283 -0.9736 -0.0000
vn 0.2072 -0.9371 0.2811
vn 0.2826 -0.6154 0.7358
vn 0.1787 -0.9839 -0.0000
vn 0.4047 -0.0949 0.9095
vn 0.5268 0.4256 0.7358
vn 0.5268 0.4255 0.7358
vn 0.6022 0.7472 0.2810
vn 0.6022 0.7472 0.2811
vn 0.6022 0.7472 -0.2811
vn 0.5268 0.4255 -0.7358
vn 0.4047 -0.0949 -0.9095
vn 0.2826 -0.6154 -0.7358
vn 0.2072 -0.9370 -0.2811
vn 0.2072 -0.9371 -0.2810
vn -0.9736 0.2284 -0.0000
vn -0.9736 0.2283 -0.0000
vn 0.9736 -0.2284 -0.0000
vn 0.9736 -0.2283 -0.0000
vn -0.7214 -0.6925 -0.0000
vn -0.8308 -0.5566 -0.0000
vn 0.4175 0.9087 -0.0000
vn 0.0077 1.0000 -0.0000
vn -0.4035 0.9150 -0.0000
vn -0.4036 0.9150 -0.0000
vn -0.3838 0.8702 0.3091
vn -0.2372 0.5378 0.8090
vn -0.3838 0.8701 0.3091
vn -0.3838 0.8702 0.3090
vn 0.2372 -0.5378 0.8090
vn 0.3838 -0.8702 0.3090
vn 0.3838 -0.8702 -0.3090
vn 0.2372 -0.5378 -0.8090
vn -0.2372 0.5378 -0.8090
vn -0.3838 0.8702 -0.3090
vn -0.9150 -0.4035 -0.0000
vn 0.9150 0.4035 -0.0000
vn 0.9150 0.4036 -0.0000
vn 0.5154 0.8569 -0.0000
vn 0.2086 0.9780 -0.0000
vn 0.2633 0.9647 -0.0000
vn -0.0086 1.0000 -0.0000
vn 0.2085 0.9780 -0.0000
vn -0.7057 0.7086 -0.0000
vn -0.9498 0.3129 0.0001
vn -0.9421 -0.3353 -0.0000
vn -0.4597 -0.8881 -0.0000
vn -0.4596 -0.8881 -0.0000
vn -0.1943 -0.9810 -0.0000
vt 0.194108 0.643434
vt 0.194109 0.581089
vt 0.208458 0.581089
vt 0.208458 0.643434
vt 0.068741 0.643423
vt 0.054391 0.643423
vt 0.054390 0.581079
vt 0.068742 0.581079
vt 0.003154 0.956951
vt 0.015295 0.960599
vt 0.011635 0.949333
vt 0.003154 0.941715
vt 0.015295 0.938067
vt 0.096782 0.941715
vt 0.084641 0.938067
vt 0.088301 0.949333
vt 0.096782 0.956951
vt 0.084641 0.960599
vt 0.047595 0.643424
vt 0.047593 0.581080
vt 0.033619 0.643425
vt 0.033616 0.582894
vt 0.005660 0.582896
vt 0.005666 0.643427
vt 0.215252 0.581088
vt 0.215255 0.643432
vt 0.229231 0.643432
vt 0.229226 0.582900
vt 0.257184 0.643430
vt 0.257178 0.582898
vt 0.285139 0.643427
vt 0.285133 0.582896
vt 0.075544 0.581080
vt 0.075542 0.643424
vt 0.089514 0.643425
vt 0.089519 0.582894
vt 0.117455 0.643427
vt 0.117462 0.582896
vt 0.145394 0.643430
vt 0.145400 0.582898
vt 0.173336 0.643432
vt 0.173339 0.582900
vt 0.187309 0.581088
vt 0.187307 0.643432
vt 0.064665 0.960011
vt 0.067305 0.954966
vt 0.079362 0.970689
vt 0.061196 0.983888
vt 0.055582 0.966611
vt 0.038741 0.983888
vt 0.044354 0.966611
vt 0.020574 0.970689
vt 0.035271 0.960011
vt 0.032632 0.954966
vt 0.031802 0.949333
vt 0.068135 0.949333
vt 0.067305 0.943700
vt 0.064665 0.938655
vt 0.079362 0.927977
vt 0.055582 0.932056
vt 0.061196 0.914778
vt 0.044354 0.932056
vt 0.038741 0.914778
vt 0.035271 0.938655
vt 0.020574 0.927977
vt 0.032632 0.943700
vt 0.371491 0.083853
vt 0.337910 0.083853
vt 0.337910 0.074778
vt 0.347027 0.065701
vt 0.371491 0.047549
vt 0.344110 0.071874
vt 0.344110 0.059529
vt 0.337910 0.056625
vt 0.337910 0.047549
vt 0.304329 0.083853
vt 0.331709 0.071873
vt 0.328793 0.065701
vt 0.304328 0.047549
vt 0.331709 0.059528
vt 0.371529 0.106185
vt 0.407833 0.106185
vt 0.407833 0.169022
vt 0.371529 0.169022
vt 0.337948 0.149656
vt 0.337948 0.086819
vt 0.304367 0.106185
vt 0.304367 0.169022
vt 0.474996 0.106185
vt 0.474996 0.169022
vt 0.441414 0.149656
vt 0.441414 0.086819
vt 0.304328 0.007956
vt 0.304329 0.044260
vt 0.337910 0.044260
vt 0.337910 0.007956
vt 0.371491 0.044260
vt 0.371491 0.007956
vt 0.465824 0.030388
vt 0.459624 0.033292
vt 0.453423 0.030388
vt 0.450507 0.024216
vt 0.468741 0.024216
vt 0.453423 0.018043
vt 0.465824 0.018043
vt 0.459624 0.015139
vt 0.754221 0.776044
vt 0.754221 0.778040
vt 0.768142 0.779382
vt 0.768142 0.786767
vt 0.801770 0.786767
vt 0.801770 0.774812
vt 0.801775 0.352785
vt 0.801775 0.311483
vt 0.801775 0.349024
vt 0.801775 0.325320
vt 0.987990 0.173718
vt 0.987992 0.249083
vt 0.514860 0.249262
vt 0.514858 0.173896
vt 0.514858 0.493436
vt 0.514860 0.418071
vt 0.982655 0.418247
vt 0.982654 0.493613
vt 0.982653 0.072467
vt 0.514858 0.072421
vt 0.514858 0.004730
vt 0.982654 0.004906
vt 0.514857 0.097668
vt 0.987989 0.097647
vt 0.987989 0.073979
vt 0.987993 0.325311
vt 0.987993 0.349039
vt 0.514861 0.350512
vt 0.982656 0.350557
vt 0.640747 0.769939
vt 0.635247 0.769939
vt 0.645983 0.799016
vt 0.630010 0.799016
vt 0.633936 0.793060
vt 0.642057 0.793060
vt 0.629198 0.801723
vt 0.646795 0.801723
vt 0.642057 0.808491
vt 0.633936 0.808491
vt 0.668386 0.809482
vt 0.658930 0.809482
vt 0.669048 0.775298
vt 0.658930 0.772249
vt 0.648232 0.350525
vt 0.514861 0.325333
vt 0.648232 0.325327
vt 0.648232 0.352766
vt 0.445292 0.014301
vt 0.408095 0.052552
vt 0.398842 0.039054
vt 0.398516 0.014512
vt 0.648232 0.287582
vt 0.648232 0.312749
vt 0.759405 0.311489
vt 0.746736 0.287556
vt 0.669876 0.807213
vt 0.658930 0.803682
vt 0.669369 0.803682
vt 0.668954 0.800901
vt 0.658930 0.800901
vt 0.667113 0.787868
vt 0.669033 0.778920
vt 0.801774 0.249153
vt 0.648231 0.249211
vt 0.121004 0.770399
vt 0.141820 0.770401
vt 0.145376 0.774467
vt 0.117439 0.774464
vt 0.117442 0.752297
vt 0.121005 0.758905
vt 0.141821 0.758907
vt 0.145379 0.752299
vt 0.285155 0.752297
vt 0.257197 0.752299
vt 0.257192 0.727503
vt 0.285147 0.727500
vt 0.229236 0.727505
vt 0.229236 0.752300
vt 0.201282 0.727506
vt 0.201277 0.752301
vt 0.173332 0.727505
vt 0.173324 0.752300
vt 0.145387 0.727503
vt 0.117447 0.727500
vt 0.089508 0.727498
vt 0.089508 0.752295
vt 0.061568 0.727497
vt 0.061573 0.752294
vt 0.033623 0.727498
vt 0.033631 0.752295
vt 0.005673 0.727500
vt 0.005681 0.752297
vt 0.054425 0.935616
vt 0.045511 0.935616
vt 0.061637 0.940856
vt 0.038300 0.940856
vt 0.035545 0.949333
vt 0.038300 0.957811
vt 0.045511 0.963050
vt 0.054425 0.963050
vt 0.061637 0.957811
vt 0.064391 0.949333
vt 0.058718 0.976264
vt 0.072877 0.965977
vt 0.078285 0.949333
vt 0.072877 0.932689
vt 0.058718 0.922403
vt 0.041218 0.922403
vt 0.027059 0.932689
vt 0.021651 0.949333
vt 0.027059 0.965977
vt 0.041218 0.976264
vt 0.089506 0.774463
vt 0.061573 0.774462
vt 0.033633 0.774463
vt 0.005684 0.774464
vt 0.173322 0.774468
vt 0.201277 0.774469
vt 0.229238 0.774468
vt 0.257200 0.774467
vt 0.285158 0.774464
vt 0.145407 0.507665
vt 0.145404 0.535852
vt 0.142395 0.522813
vt 0.142396 0.512881
vt 0.120471 0.522810
vt 0.117464 0.535849
vt 0.117466 0.507662
vt 0.120472 0.512878
vt 0.285133 0.574434
vt 0.257177 0.574436
vt 0.257174 0.544265
vt 0.285129 0.544263
vt 0.229224 0.544267
vt 0.229226 0.574438
vt 0.201280 0.544268
vt 0.201280 0.574439
vt 0.173341 0.544267
vt 0.173339 0.574438
vt 0.145404 0.544265
vt 0.145401 0.574436
vt 0.117465 0.544263
vt 0.117462 0.574434
vt 0.089520 0.544261
vt 0.089519 0.574431
vt 0.061569 0.544260
vt 0.061569 0.574431
vt 0.033613 0.544261
vt 0.033615 0.574431
vt 0.005656 0.544263
vt 0.005659 0.574434
vt 0.257175 0.535852
vt 0.285130 0.535849
vt 0.229226 0.535854
vt 0.201282 0.535855
vt 0.173342 0.535854
vt 0.089518 0.535846
vt 0.061567 0.535845
vt 0.033612 0.535846
vt 0.005656 0.535849
vt 0.013635 0.949333
vt 0.086301 0.949333
vt 0.092443 0.949333
vt 0.084331 0.974299
vt 0.084331 0.924367
vt 0.063094 0.908937
vt 0.036843 0.908937
vt 0.015605 0.924367
vt 0.007493 0.949333
vt 0.015605 0.974299
vt 0.036843 0.989729
vt 0.063094 0.989729
vt 0.089520 0.507660
vt 0.061567 0.507659
vt 0.033611 0.507660
vt 0.005653 0.507662
vt 0.173344 0.507668
vt 0.201282 0.507669
vt 0.229224 0.507668
vt 0.257173 0.507665
vt 0.285127 0.507662
vt 0.476703 0.718499
vt 0.422712 0.718499
vt 0.476703 0.727885
vt 0.422712 0.727885
vt 0.424708 0.678364
vt 0.424708 0.711893
vt 0.474707 0.711893
vt 0.474707 0.678364
vt 0.438634 0.670241
vt 0.434220 0.621281
vt 0.460781 0.670241
vt 0.465195 0.621281
vt 0.208137 0.276041
vt 0.477914 0.276041
vt 0.208137 0.264003
vt 0.208137 0.210338
vt 0.477914 0.210338
vt 0.477914 0.264003
vt 0.208137 0.270004
vt 0.477914 0.270004
vt 0.469237 0.808987
vt 0.430178 0.808987
vt 0.430178 0.726429
vt 0.469237 0.726429
vt 0.257176 0.571939
vt 0.285132 0.571937
vt 0.229225 0.571941
vt 0.201280 0.571942
vt 0.201280 0.582901
vt 0.173339 0.571941
vt 0.145402 0.571939
vt 0.117463 0.571937
vt 0.089519 0.571935
vt 0.061570 0.571934
vt 0.061570 0.582893
vt 0.033615 0.571935
vt 0.005658 0.571937
vt 0.517136 0.581952
vt 0.517136 0.549801
vt 0.955733 0.549803
vt 0.955733 0.581954
vt 0.517136 0.614103
vt 0.955733 0.614105
vt 0.517136 0.646254
vt 0.955733 0.646256
vt 0.517136 0.678405
vt 0.955733 0.678406
vt 0.517137 0.710555
vt 0.955733 0.710557
vt 0.517136 0.742707
vt 0.955733 0.742708
vt 0.703531 0.815939
vt 0.708174 0.805539
vt 0.734845 0.801522
vt 0.688028 0.815939
vt 0.696262 0.813251
vt 0.699851 0.810426
vt 0.705478 0.797471
vt 0.734833 0.792219
vt 0.827314 0.817831
vt 0.828367 0.808814
vt 0.811578 0.817837
vt 0.853715 0.792667
vt 0.850958 0.792396
vt 0.848462 0.788311
vt 0.838785 0.787235
vt 0.835009 0.817826
vt 0.842733 0.827009
vt 0.846374 0.827009
vt 0.837958 0.817820
vt 0.846872 0.804630
vt 0.837958 0.815550
vt 0.844397 0.804128
vt 0.835833 0.814389
vt 0.811578 0.827009
vt 0.838612 0.792125
vt 0.835219 0.795694
vt 0.834947 0.798445
vt 0.831469 0.801558
vt 0.831461 0.806401
vt 0.799059 0.824163
vt 0.742225 0.824163
vt 0.748176 0.811229
vt 0.799059 0.802259
vt 0.799059 0.821367
vt 0.743438 0.821367
vt 0.746750 0.814122
vt 0.799059 0.805285
vt 0.327754 0.764227
vt 0.339814 0.733047
vt 0.374647 0.733047
vt 0.374647 0.764227
vt 0.434677 0.848394
vt 0.434677 0.814653
vt 0.464951 0.848394
vt 0.464951 0.814653
vt 0.225400 0.843696
vt 0.225400 0.838672
vt 0.258734 0.843696
vt 0.258734 0.838672
vt 0.293773 0.833512
vt 0.393226 0.833512
vt 0.393226 0.838536
vt 0.293773 0.838536
vt 0.459963 0.507010
vt 0.440251 0.507010
vt 0.459963 0.529656
vt 0.440251 0.529656
vt 0.456275 0.580760
vt 0.456275 0.533905
vt 0.443939 0.580760
vt 0.443939 0.533905
vt 0.467581 0.589072
vt 0.460832 0.609571
vt 0.439383 0.609571
vt 0.432634 0.589072
vt 0.450107 0.594739
vt 0.236733 0.827014
vt 0.236733 0.821990
vt 0.381893 0.827014
vt 0.376451 0.802239
vt 0.381853 0.802239
vt 0.376492 0.821990
vt 0.322619 0.395907
vt 0.322619 0.365422
vt 0.463212 0.395907
vt 0.463212 0.365422
vt 0.352693 0.655522
vt 0.370175 0.655524
vt 0.361432 0.670691
vt 0.343919 0.670689
vt 0.352674 0.685857
vt 0.370188 0.685859
vt 0.378946 0.670692
vt 0.370181 0.538766
vt 0.352702 0.538765
vt 0.361442 0.523598
vt 0.378956 0.523599
vt 0.370200 0.508431
vt 0.352686 0.508430
vt 0.343928 0.523597
vt 0.317822 0.655521
vt 0.300378 0.655522
vt 0.300367 0.538764
vt 0.317817 0.538763
vt 0.335264 0.655521
vt 0.335270 0.538763
vt 0.387612 0.655524
vt 0.387606 0.538766
vt 0.405061 0.655522
vt 0.405050 0.538764
vt 0.811578 0.811155
vt 0.817468 0.807829
vt 0.823795 0.807843
vt 0.828036 0.811320
vt 0.201282 0.643433
vt 0.061568 0.643424
vt 0.101641 0.249720
vt 0.091907 0.249720
vt 0.086330 0.267768
vt 0.094205 0.273783
vt 0.094205 0.225657
vt 0.086330 0.231673
vt 0.074737 0.210785
vt 0.071729 0.220519
vt 0.050674 0.210785
vt 0.053682 0.220519
vt 0.031207 0.225657
vt 0.039082 0.231673
vt 0.023771 0.249720
vt 0.033505 0.249720
vt 0.031207 0.273783
vt 0.039082 0.267768
vt 0.050674 0.288655
vt 0.053682 0.278921
vt 0.074737 0.288655
vt 0.071729 0.278921
vt 0.070813 0.949333
vt 0.066832 0.961585
vt 0.066832 0.937081
vt 0.056409 0.929509
vt 0.043527 0.929509
vt 0.033105 0.937081
vt 0.029124 0.949333
vt 0.033105 0.961585
vt 0.043527 0.969157
vt 0.056409 0.969157
vt 0.881045 0.773447
vt 0.005564 0.823675
vt 0.149509 0.823668
vt 0.151327 0.836199
vt 0.005564 0.836193
vt 0.389432 0.936630
vt 0.401509 0.936630
vt 0.389432 0.961172
vt 0.401509 0.961172
vt 0.366581 0.919214
vt 0.354728 0.934722
vt 0.005564 0.856211
vt 0.151326 0.856231
vt 0.005564 0.803619
vt 0.151326 0.803598
vt 0.354728 0.922451
vt 0.424175 0.903906
vt 0.472003 0.903906
vt 0.494668 0.936630
vt 0.494668 0.961172
vt 0.424152 0.993837
vt 0.472025 0.993837
vt 0.881045 0.767738
vt 0.900640 0.767731
vt 0.900640 0.773439
vt 0.504375 0.519926
vt 0.512591 0.511710
vt 0.520806 0.519926
vt 0.512591 0.528141
vt 0.828675 0.521414
vt 0.940674 0.521414
vt 0.940673 0.529630
vt 0.828674 0.529629
vt 0.940673 0.537846
vt 0.828680 0.537844
vt 0.804032 0.537862
vt 0.800744 0.529652
vt 0.828675 0.513206
vt 0.940674 0.513197
vt 0.800715 0.513209
vt 0.804017 0.504980
vt 0.828672 0.504999
vt 0.940673 0.504980
vt 0.951473 0.504982
vt 0.946126 0.513197
vt 0.951474 0.521414
vt 0.956821 0.529631
vt 0.951473 0.537847
vt 0.634707 0.529532
vt 0.629698 0.537749
vt 0.616734 0.537752
vt 0.616732 0.529537
vt 0.530571 0.529553
vt 0.530572 0.537768
vt 0.530567 0.513122
vt 0.530566 0.504907
vt 0.616728 0.504889
vt 0.616729 0.513105
vt 0.629693 0.504889
vt 0.624681 0.513104
vt 0.629693 0.521319
vt 0.616730 0.521321
vt 0.530569 0.521337
vt 0.651160 0.529354
vt 0.648894 0.537252
vt 0.636707 0.536948
vt 0.636904 0.521396
vt 0.649095 0.521401
vt 0.638252 0.513640
vt 0.647030 0.513444
vt 0.648739 0.505403
vt 0.636560 0.505951
vt 0.669288 0.529332
vt 0.667285 0.537300
vt 0.654227 0.537466
vt 0.654131 0.521380
vt 0.667189 0.521389
vt 0.655753 0.513328
vt 0.665090 0.513445
vt 0.667387 0.505556
vt 0.654333 0.505238
vt 0.695060 0.529510
vt 0.693926 0.537647
vt 0.677807 0.535429
vt 0.673561 0.528396
vt 0.669286 0.521380
vt 0.696161 0.521369
vt 0.673527 0.514344
vt 0.695021 0.513233
vt 0.693912 0.505092
vt 0.677795 0.507325
vt 0.760821 0.529587
vt 0.761827 0.537741
vt 0.702817 0.537230
vt 0.700642 0.529308
vt 0.698436 0.521394
vt 0.759784 0.521437
vt 0.700622 0.513475
vt 0.760801 0.513285
vt 0.761850 0.505136
vt 0.702839 0.505564
vt 0.794468 0.529623
vt 0.793940 0.537821
vt 0.767242 0.537259
vt 0.765069 0.529336
vt 0.762865 0.521421
vt 0.794963 0.521422
vt 0.765038 0.513498
vt 0.794436 0.513224
vt 0.793941 0.505023
vt 0.767243 0.505584
vt 0.974917 0.529437
vt 0.971924 0.537243
vt 0.961494 0.537269
vt 0.958959 0.529408
vt 0.961522 0.521558
vt 0.971953 0.521618
vt 0.964084 0.513706
vt 0.968987 0.513801
vt 0.972252 0.506104
vt 0.961826 0.505762
vt 0.994842 0.529775
vt 0.994845 0.537990
vt 0.979755 0.537995
vt 0.978187 0.529780
vt 0.994839 0.521560
vt 0.979751 0.521563
vt 0.994839 0.513345
vt 0.981316 0.513347
vt 0.994839 0.505130
vt 0.979749 0.505132
vt 0.797440 0.521436
vt 0.870681 0.787617
vt 0.911004 0.783079
vt 0.911004 0.818031
vt 0.870681 0.818031
vt 0.157611 0.997007
vt 0.156982 0.986268
vt 0.157611 0.989653
vt 0.142613 0.997007
vt 0.142613 0.989653
vt 0.143241 0.986268
vt 0.162137 0.986268
vt 0.181596 0.972131
vt 0.184474 0.974223
vt 0.163237 0.989653
vt 0.192587 0.949256
vt 0.189028 0.949256
vt 0.184474 0.924290
vt 0.181596 0.926382
vt 0.163237 0.908860
vt 0.162137 0.912245
vt 0.136986 0.908860
vt 0.138086 0.912245
vt 0.115749 0.924290
vt 0.118627 0.926382
vt 0.107636 0.949256
vt 0.111195 0.949256
vt 0.115749 0.974223
vt 0.118627 0.972131
vt 0.136986 0.989653
vt 0.138086 0.986268
vt 0.150112 0.949256
vt 0.255290 0.976747
vt 0.255290 0.982484
vt 0.245066 0.982484
vt 0.245066 0.976747
vt 0.259126 0.976747
vt 0.273604 0.966228
vt 0.279134 0.949208
vt 0.273604 0.932188
vt 0.259126 0.921670
vt 0.241230 0.921670
vt 0.226752 0.932188
vt 0.221222 0.949208
vt 0.226752 0.966228
vt 0.241230 0.976747
vt 0.250178 0.949208
vt 0.304265 0.918830
vt 0.308653 0.914423
vt 0.328132 0.934931
vt 0.316558 0.939269
vt 0.336935 0.979384
vt 0.316215 0.979384
s 1
usemtl GLIDER
f 1/1/1 3/2/1 2/3/1
f 4/4/1 1/1/1 2/3/1
f 5/5/2 7/6/2 6/7/2
f 8/8/2 5/5/2 6/7/2
f 5/9/3 10/10/3 9/11/3
f 7/12/3 5/9/3 9/11/3
f 7/12/3 9/11/3 11/13/3
f 4/14/3 13/15/3 12/16/3
f 1/17/3 4/14/3 12/16/3
f 1/17/3 12/16/3 14/18/3
f 6/7/4 7/6/4 11/19/5
f 15/20/6 6/7/4 11/19/5
f 15/20/6 11/19/5 16/21/7
f 17/22/7 15/20/6 16/21/7
f 18/23/8 17/22/7 16/21/7
f 18/23/8 16/21/7 19/24/8
f 4/4/9 2/3/9 20/25/10
f 13/26/10 4/4/9 20/25/10
f 21/27/11 13/26/10 20/25/10
f 21/27/11 20/25/10 22/28/11
f 23/29/12 21/27/11 22/28/11
f 23/29/12 22/28/11 24/30/12
f 19/31/8 23/29/12 24/30/12
f 19/31/8 24/30/12 18/32/8
f 5/5/13 8/8/13 25/33/14
f 10/34/14 5/5/13 25/33/14
f 26/35/15 10/34/16 25/33/16
f 26/35/15 25/33/16 27/36/15
f 28/37/17 26/35/15 27/36/15
f 28/37/17 27/36/15 29/38/17
f 30/39/18 28/37/17 29/38/17
f 30/39/18 29/38/17 31/40/18
f 32/41/19 30/39/18 31/40/18
f 32/41/19 31/40/18 33/42/19
f 32/41/19 33/42/19 34/43/20
f 14/44/20 32/41/19 34/43/20
f 14/44/20 34/43/20 3/2/21
f 1/1/21 14/44/20 3/2/21
f 35/45/22 36/46/22 34/18/22
f 35/45/22 34/18/22 33/47/22
f 35/45/22 33/47/22 31/48/22
f 37/49/22 35/45/22 31/48/22
f 37/49/22 31/48/22 29/50/22
f 38/51/22 37/49/22 29/50/22
f 38/51/22 29/50/22 27/52/22
f 39/53/22 38/51/22 27/52/22
f 39/53/22 27/52/22 25/10/22
f 40/54/22 39/53/22 25/10/22
f 41/55/22 40/54/22 25/10/22
f 41/55/22 25/10/22 42/11/22
f 15/13/22 41/55/22 42/11/22
f 6/12/22 15/13/22 42/11/22
f 8/9/22 6/12/22 42/11/22
f 8/9/22 42/11/22 25/10/22
f 34/18/22 36/46/22 43/56/22
f 34/18/22 43/56/22 44/16/22
f 3/17/22 34/18/22 44/16/22
f 2/14/22 3/17/22 44/16/22
f 20/15/22 2/14/22 44/16/22
f 20/15/22 44/16/22 43/56/22
f 20/15/22 43/56/22 45/57/22
f 20/15/22 45/57/22 46/58/22
f 22/59/22 20/15/22 46/58/22
f 22/59/22 46/58/22 47/60/22
f 24/61/22 22/59/22 47/60/22
f 24/61/22 47/60/22 48/62/22
f 18/63/22 24/61/22 48/62/22
f 18/63/22 48/62/22 49/64/22
f 17/65/22 18/63/22 49/64/22
f 15/13/22 17/65/22 49/64/22
f 15/13/22 49/64/22 50/66/22
f 41/55/22 15/13/22 50/66/22
f 51/67/23 53/68/22 52/69/24
f 54/70/25 55/71/26 51/67/23
f 54/70/25 51/67/23 52/69/24
f 56/72/27 54/70/25 52/69/24
f 54/70/25 58/73/28 57/74/29
f 55/71/26 54/70/25 57/74/29
f 55/71/26 57/74/29 59/75/22
f 52/69/30 53/68/22 67/76/31
f 60/77/32 52/69/30 67/76/31
f 61/78/33 60/77/32 67/76/31
f 61/78/33 67/76/31 68/79/34
f 62/80/35 61/78/33 68/79/36
f 57/74/37 62/80/35 68/79/36
f 57/74/37 68/79/36 59/75/22
f 51/81/1 55/82/1 63/83/1
f 64/84/1 51/81/1 63/83/1
f 51/81/38 64/84/38 65/85/39
f 53/86/40 51/81/38 65/85/39
f 67/87/41 53/86/40 65/85/39
f 67/87/41 65/85/40 69/88/41
f 68/89/42 70/90/42 66/91/43
f 59/92/43 68/89/42 66/91/43
f 55/82/44 59/92/43 66/91/43
f 55/82/44 66/91/43 63/83/44
f 70/93/3 69/94/45 65/95/3
f 66/96/3 70/93/3 65/95/3
f 66/96/3 65/95/3 64/97/3
f 63/98/46 66/96/3 64/97/3
f 56/99/47 52/100/48 60/101/47
f 56/99/47 60/101/47 61/102/22
f 54/103/22 56/99/47 61/102/22
f 54/103/22 61/102/22 62/104/49
f 58/105/49 54/103/22 62/104/49
f 58/105/49 62/104/49 57/106/50
f 71/107/51 73/108/52 72/109/53
f 72/109/53 75/110/54 74/111/55
f 72/109/53 74/111/55 76/112/56
f 71/107/51 72/109/53 76/112/56
f 73/108/22 71/107/22 77/107/22
f 78/108/22 73/108/22 77/107/22
f 75/110/22 72/109/22 79/109/22
f 80/110/22 75/110/22 79/109/22
f 81/111/40 74/111/40 75/110/40
f 80/110/40 81/111/40 75/110/40
f 82/112/3 76/112/3 74/111/3
f 81/111/3 82/112/3 74/111/3
f 82/112/57 77/107/57 71/107/57
f 76/112/57 82/112/57 71/107/57
f 78/108/58 79/109/58 72/109/58
f 73/108/58 78/108/58 72/109/58
f 81/111/59 80/110/60 79/109/60
f 82/112/60 81/111/59 79/109/60
f 77/107/61 82/112/60 79/109/60
f 77/107/61 79/109/60 78/108/62
f 83/113/22 85/114/22 84/115/22
f 86/116/22 87/115/22 84/115/22
f 86/116/22 84/115/22 85/114/22
f 88/114/22 86/116/22 85/114/22
f 89/117/40 91/118/40 90/119/40
f 92/120/40 89/117/40 90/119/40
f 93/121/43 95/122/43 94/123/43
f 96/124/43 93/121/43 94/123/43
f 97/125/63 150/126/63 93/127/63
f 96/128/63 97/125/63 93/127/63
f 89/117/64 92/120/64 98/129/64
f 99/130/64 89/117/64 98/129/64
f 99/130/1 98/129/1 100/126/1
f 101/131/1 99/130/1 100/126/1
f 101/131/43 100/126/43 150/126/43
f 151/131/43 101/131/43 150/126/43
f 86/116/2 103/132/2 102/133/2
f 87/115/2 86/116/2 102/133/2
f 87/115/43 102/133/43 152/133/43
f 84/115/43 87/115/43 152/133/43
f 95/122/65 153/134/65 104/135/65
f 94/123/65 95/122/65 104/135/65
f 105/136/43 107/137/43 106/137/43
f 108/136/43 105/136/43 106/137/43
f 108/136/66 151/138/66 97/138/66
f 105/136/66 108/136/66 97/138/66
f 106/137/67 107/137/67 104/139/67
f 152/139/67 106/137/67 104/139/67
f 150/138/22 153/139/22 95/140/22
f 93/141/22 150/138/22 95/140/22
f 109/142/22 110/139/22 153/139/22
f 98/143/22 109/142/22 153/139/22
f 98/143/22 153/139/22 100/138/22
f 92/144/22 90/145/22 109/142/22
f 98/143/22 92/144/22 109/142/22
f 111/146/40 113/146/40 112/147/40
f 114/147/40 111/146/40 112/147/40
f 115/148/68 117/148/68 116/149/68
f 118/149/68 115/148/68 116/149/68
f 153/134/43 110/134/43 119/150/43
f 120/150/43 153/134/43 119/150/43
f 110/134/2 109/151/2 121/152/2
f 119/150/2 110/134/2 121/152/2
f 83/113/40 84/115/40 120/150/40
f 122/153/69 83/113/70 120/150/40
f 123/154/22 124/155/22 85/156/22
f 83/157/22 123/154/22 85/156/22
f 123/154/69 83/157/70 122/157/69
f 125/154/69 123/154/69 122/157/69
f 126/156/3 127/155/3 125/154/3
f 122/157/3 126/156/3 125/154/3
f 128/158/3 127/158/3 126/159/3
f 121/152/3 128/158/3 126/159/3
f 126/159/3 122/153/3 120/150/3
f 121/152/3 126/159/3 120/150/3
f 121/152/3 120/150/3 119/150/3
f 129/160/71 131/161/71 130/160/71
f 124/114/71 129/160/71 130/160/71
f 124/114/71 130/160/71 85/114/71
f 129/155/72 124/155/72 123/154/72
f 131/155/72 129/155/72 123/154/72
f 131/155/72 123/154/72 125/154/72
f 127/155/72 131/155/72 125/154/72
f 94/140/73 104/139/74 107/137/73
f 96/141/75 94/140/73 107/137/73
f 96/141/75 107/137/73 105/136/75
f 97/138/76 96/141/75 105/136/75
f 127/158/77 128/158/77 132/161/78
f 131/161/79 127/158/77 132/161/78
f 130/160/80 131/161/79 132/161/78
f 130/160/80 132/161/78 133/160/81
f 130/160/80 133/160/81 88/114/82
f 85/114/82 130/160/80 88/114/82
f 152/139/3 134/139/3 118/137/3
f 106/137/3 152/139/3 118/137/3
f 108/136/3 106/137/3 118/137/3
f 108/136/3 118/137/3 116/136/3
f 151/138/3 108/136/3 116/136/3
f 151/138/3 116/136/3 135/138/3
f 134/139/3 102/139/3 103/142/3
f 136/142/3 134/139/3 103/142/3
f 112/145/3 136/142/3 103/142/3
f 112/145/3 103/142/3 91/145/3
f 114/144/3 112/145/3 91/145/3
f 114/144/3 91/145/3 89/144/3
f 137/143/3 114/144/3 89/144/3
f 137/143/3 89/144/3 99/143/3
f 135/138/3 137/143/3 99/143/3
f 135/138/3 99/143/3 101/138/3
f 112/147/83 113/146/84 138/162/85
f 136/163/86 112/147/83 138/162/85
f 136/163/86 138/162/85 139/164/86
f 136/163/86 139/164/86 140/165/87
f 134/166/88 136/163/86 140/165/87
f 134/166/88 140/165/87 141/167/89
f 118/149/90 134/166/88 141/167/89
f 118/149/90 141/167/89 142/168/91
f 115/148/92 118/149/90 142/168/91
f 143/162/93 111/146/94 114/147/64
f 143/162/93 114/147/64 137/163/95
f 144/164/96 143/162/93 137/163/95
f 145/165/97 144/164/96 137/163/95
f 145/165/97 137/163/95 135/166/98
f 146/167/99 145/165/97 135/166/98
f 146/167/99 135/166/98 116/149/100
f 147/168/101 146/167/99 116/149/100
f 147/168/101 116/149/100 117/148/102
f 103/132/103 86/116/103 88/114/103
f 91/118/103 103/132/103 88/114/103
f 148/169/103 91/118/103 88/114/103
f 148/169/103 88/114/103 133/160/103
f 148/169/103 133/160/103 132/161/103
f 149/170/103 148/169/103 132/161/103
f 149/170/103 132/161/103 128/158/103
f 90/119/103 149/170/103 128/158/103
f 109/151/103 90/119/103 128/158/103
f 109/151/103 128/158/103 121/152/103
f 113/146/104 111/146/104 143/162/105
f 138/162/106 113/146/104 143/162/105
f 138/162/106 143/162/105 144/164/107
f 139/164/108 138/162/106 144/164/107
f 139/164/108 144/164/107 145/165/109
f 140/165/110 139/164/108 145/165/109
f 140/165/110 145/165/109 146/167/111
f 141/167/111 140/165/110 146/167/111
f 141/167/111 146/167/111 147/168/112
f 142/168/112 141/167/111 147/168/112
f 115/148/113 142/168/112 147/168/112
f 115/148/113 147/168/112 117/148/113
f 164/171/114 166/172/114 165/173/114
f 167/174/114 164/171/114 165/173/114
f 167/174/2 169/175/2 168/176/2
f 164/171/2 167/174/2 168/176/2
f 170/177/1 171/178/1 165/173/1
f 166/172/1 170/177/1 165/173/1
f 172/179/115 174/180/116 173/181/116
f 175/182/117 172/179/115 173/181/116
f 176/183/118 173/181/116 174/180/116
f 176/183/118 174/180/116 177/184/118
f 178/185/119 176/183/118 177/184/118
f 178/185/119 177/184/118 179/186/119
f 180/187/120 178/185/119 179/186/119
f 180/187/120 179/186/119 181/188/120
f 182/189/121 180/187/120 181/188/120
f 182/189/121 181/188/120 171/178/122
f 183/190/123 182/189/121 171/178/122
f 183/190/123 171/178/122 169/175/123
f 184/191/124 183/190/123 169/175/123
f 184/191/124 169/175/123 185/192/124
f 186/193/125 184/191/124 185/192/124
f 186/193/125 185/192/124 187/194/125
f 188/195/126 186/193/125 187/194/125
f 188/195/126 187/194/125 189/196/126
f 175/197/117 188/195/126 189/196/126
f 172/198/115 175/197/117 189/196/126
f 190/199/127 192/200/128 191/199/127
f 193/201/129 190/199/127 191/199/127
f 192/200/128 190/199/127 194/200/128
f 195/202/130 192/200/128 194/200/128
f 195/202/130 194/200/128 196/202/130
f 197/203/131 195/202/130 196/202/130
f 197/203/131 196/202/130 198/203/131
f 199/204/132 197/203/131 198/203/131
f 199/204/132 198/203/131 200/204/132
f 201/205/133 199/204/132 200/204/132
f 201/205/133 200/204/132 202/205/133
f 203/206/134 201/205/133 202/205/133
f 203/206/134 202/205/133 204/206/134
f 205/207/135 203/206/134 204/206/134
f 205/207/135 204/206/134 206/207/135
f 207/208/136 205/207/135 206/207/135
f 207/208/136 206/207/135 208/208/136
f 209/201/129 207/208/136 208/208/136
f 209/201/129 208/208/136 193/201/129
f 191/199/127 209/201/129 193/201/129
f 191/199/17 162/200/18 163/199/17
f 209/201/15 191/199/17 163/199/17
f 162/200/18 191/199/17 192/200/18
f 161/202/19 162/200/18 192/200/18
f 161/202/19 192/200/18 195/202/19
f 160/203/1 161/202/19 195/202/19
f 160/203/1 195/202/19 197/203/1
f 159/204/11 160/203/1 197/203/1
f 159/204/11 197/203/1 199/204/11
f 158/205/12 159/204/11 199/204/11
f 158/205/12 199/204/11 201/205/12
f 157/206/8 158/205/12 201/205/12
f 157/206/8 201/205/12 203/206/8
f 154/207/7 157/206/8 203/206/8
f 154/207/7 203/206/8 205/207/7
f 156/208/2 154/207/7 205/207/7
f 156/208/2 205/207/7 207/208/2
f 155/201/15 156/208/2 207/208/2
f 155/201/15 207/208/2 209/201/15
f 163/199/17 155/201/15 209/201/15
f 165/209/3 211/210/3 210/206/3
f 212/205/3 165/209/3 210/206/3
f 213/207/3 210/206/3 211/210/3
f 213/207/3 211/210/3 214/211/3
f 215/208/3 213/207/3 214/211/3
f 215/208/3 214/211/3 216/212/3
f 217/201/3 215/208/3 216/212/3
f 217/201/3 216/212/3 218/213/3
f 219/199/3 217/201/3 218/213/3
f 219/199/3 218/213/3 220/214/3
f 221/200/3 219/199/3 220/214/3
f 221/200/3 220/214/3 222/215/3
f 223/202/3 221/200/3 222/215/3
f 223/202/3 222/215/3 224/216/3
f 225/203/3 223/202/3 224/216/3
f 226/204/3 225/203/3 224/216/3
f 226/204/3 224/216/3 227/217/3
f 212/205/3 226/204/3 227/217/3
f 212/205/3 227/217/3 167/218/3
f 165/209/3 212/205/3 167/218/3
f 166/172/40 164/171/40 168/176/137
f 170/177/137 166/172/40 168/176/137
f 170/177/137 168/176/137 169/175/138
f 171/178/138 170/177/137 169/175/138
f 219/199/17 221/200/40 194/200/40
f 219/199/17 194/200/40 190/199/17
f 217/201/15 219/199/17 190/199/17
f 217/201/15 190/199/17 193/201/15
f 215/208/2 217/201/15 193/201/15
f 215/208/2 193/201/15 208/208/2
f 213/207/139 215/208/2 208/208/2
f 213/207/139 208/208/2 206/207/139
f 185/192/15 169/175/140 167/174/140
f 185/192/15 167/174/140 227/219/15
f 187/194/2 185/192/15 227/219/15
f 187/194/2 227/219/15 224/220/2
f 189/196/7 187/194/2 224/220/2
f 189/196/7 224/220/2 222/221/7
f 172/198/8 189/196/7 222/221/7
f 172/198/8 222/221/7 220/222/8
f 211/223/19 165/173/141 171/178/141
f 211/223/19 171/178/141 181/188/19
f 214/224/1 211/223/19 181/188/19
f 214/224/1 181/188/19 179/186/1
f 216/225/11 214/224/1 179/186/1
f 216/225/11 179/186/1 177/184/11
f 218/226/12 216/225/11 177/184/11
f 218/226/12 177/184/11 174/180/12
f 220/227/8 218/226/12 174/180/12
f 220/227/8 174/180/12 172/179/8
f 196/202/19 194/200/141 221/200/141
f 196/202/19 221/200/141 223/202/19
f 198/203/1 196/202/19 223/202/19
f 198/203/1 223/202/19 225/203/1
f 200/204/11 198/203/1 225/203/1
f 200/204/11 225/203/1 226/204/11
f 202/205/12 200/204/11 226/204/11
f 202/205/12 226/204/11 212/205/12
f 204/206/8 202/205/12 212/205/12
f 204/206/8 212/205/12 210/206/8
f 206/207/142 204/206/8 210/206/8
f 206/207/142 210/206/8 213/207/142
f 238/228/1 240/229/1 239/230/1
f 241/231/1 238/228/1 239/230/1
f 242/232/2 244/233/2 243/234/2
f 245/235/2 242/232/2 243/234/2
f 241/231/143 245/235/143 243/234/143
f 238/228/143 241/231/143 243/234/143
f 246/236/8 248/237/12 247/238/12
f 249/239/8 246/236/8 247/238/12
f 250/240/11 247/238/12 248/237/12
f 250/240/11 248/237/12 251/241/11
f 252/242/1 250/240/11 251/241/11
f 252/242/1 251/241/11 253/243/1
f 254/244/19 252/242/1 253/243/1
f 254/244/19 253/243/1 255/245/19
f 256/246/18 254/244/19 255/245/19
f 256/246/18 255/245/19 257/247/18
f 258/248/17 256/246/18 257/247/18
f 258/248/17 257/247/18 259/249/17
f 260/250/15 258/248/17 259/249/17
f 260/250/15 259/249/17 261/251/15
f 262/252/2 260/250/15 261/251/15
f 262/252/2 261/251/15 263/253/2
f 264/254/7 262/252/2 263/253/2
f 264/254/7 263/253/2 265/255/7
f 249/256/8 264/254/7 265/255/7
f 246/257/8 249/256/8 265/255/7
f 249/239/144 247/238/145 266/258/145
f 267/259/144 249/239/144 266/258/145
f 268/260/146 266/258/145 247/238/145
f 268/260/146 247/238/145 250/240/146
f 269/261/147 268/260/146 250/240/146
f 269/261/147 250/240/146 252/242/147
f 270/262/148 269/261/147 252/242/147
f 270/262/148 252/242/147 254/244/148
f 240/229/149 270/262/148 254/244/148
f 240/229/149 254/244/148 256/246/149
f 244/233/150 240/229/149 256/246/149
f 244/233/150 256/246/149 258/248/150
f 271/263/151 244/233/150 258/248/150
f 271/263/151 258/248/150 260/250/151
f 272/264/152 271/263/151 260/250/151
f 272/264/152 260/250/151 262/252/152
f 273/265/153 272/264/152 262/252/152
f 273/265/153 262/252/152 264/254/153
f 267/266/144 273/265/153 264/254/153
f 249/256/144 267/266/144 264/254/153
f 274/51/3 259/50/3 257/48/3
f 275/49/3 274/51/3 257/48/3
f 259/50/3 274/51/3 276/53/3
f 261/52/3 259/50/3 276/53/3
f 261/52/3 276/53/3 277/55/3
f 263/267/3 261/52/3 277/55/3
f 263/267/3 277/55/3 278/64/3
f 265/65/3 263/267/3 278/64/3
f 265/65/3 278/64/3 279/62/3
f 246/63/3 265/65/3 279/62/3
f 246/63/3 279/62/3 280/60/3
f 248/61/3 246/63/3 280/60/3
f 248/61/3 280/60/3 281/58/3
f 251/59/3 248/61/3 281/58/3
f 251/59/3 281/58/3 282/56/3
f 253/268/3 251/59/3 282/56/3
f 253/268/3 282/56/3 283/45/3
f 255/47/3 253/268/3 283/45/3
f 255/47/3 283/45/3 275/49/3
f 257/48/3 255/47/3 275/49/3
f 284/211/22 286/269/22 285/270/22
f 287/210/22 284/211/22 285/270/22
f 286/269/22 284/211/22 288/212/22
f 289/271/22 286/269/22 288/212/22
f 289/271/22 288/212/22 290/213/22
f 291/272/22 289/271/22 290/213/22
f 291/272/22 290/213/22 292/214/22
f 293/273/22 291/272/22 292/214/22
f 293/273/22 292/214/22 294/215/22
f 295/274/22 293/273/22 294/215/22
f 295/274/22 294/215/22 296/216/22
f 297/275/22 295/274/22 296/216/22
f 297/275/22 296/216/22 298/217/22
f 299/276/22 297/275/22 298/217/22
f 299/276/22 298/217/22 300/218/22
f 243/277/22 299/276/22 300/218/22
f 243/277/22 300/218/22 301/209/22
f 238/278/22 243/277/22 301/209/22
f 238/278/22 301/209/22 287/210/22
f 285/270/22 238/278/22 287/210/22
f 301/209/8 235/218/12 236/209/8
f 287/210/7 301/209/8 236/209/8
f 235/218/12 301/209/8 300/218/12
f 234/217/11 235/218/12 300/218/12
f 234/217/11 300/218/12 298/217/11
f 233/216/1 234/217/11 298/217/11
f 233/216/1 298/217/11 296/216/1
f 232/215/19 233/216/1 296/216/1
f 232/215/19 296/216/1 294/215/19
f 231/214/18 232/215/19 294/215/19
f 231/214/18 294/215/19 292/214/18
f 228/213/17 231/214/18 292/214/18
f 228/213/17 292/214/18 290/213/17
f 230/212/15 228/213/17 290/213/17
f 230/212/15 290/213/17 288/212/15
f 229/211/2 230/212/15 288/212/15
f 229/211/2 288/212/15 284/211/2
f 237/210/7 229/211/2 284/211/2
f 237/210/7 284/211/2 287/210/7
f 236/209/8 237/210/7 287/210/7
f 245/235/40 241/231/40 239/230/154
f 242/232/154 245/235/40 239/230/154
f 242/232/154 239/230/154 240/229/155
f 244/233/155 242/232/154 240/229/155
f 299/279/15 243/234/140 244/233/140
f 299/279/15 244/233/140 271/263/15
f 297/280/2 299/279/15 271/263/15
f 297/280/2 271/263/15 272/264/2
f 295/281/7 297/280/2 272/264/2
f 295/281/7 272/264/2 273/265/7
f 293/282/8 295/281/7 273/265/7
f 293/282/8 273/265/7 267/266/8
f 270/262/19 240/229/141 238/228/141
f 270/262/19 238/228/141 285/283/19
f 269/261/1 270/262/19 285/283/19
f 269/261/1 285/283/19 286/284/1
f 268/260/11 269/261/1 286/284/1
f 268/260/11 286/284/1 289/285/11
f 266/258/12 268/260/11 289/285/11
f 266/258/12 289/285/11 291/286/12
f 267/259/8 266/258/12 291/286/12
f 267/259/8 291/286/12 293/287/8
f 302/288/22 304/289/22 303/289/22
f 305/288/22 302/288/22 303/289/22
f 306/290/40 307/291/40 304/289/40
f 302/288/40 306/290/40 304/289/40
f 308/290/3 309/291/3 307/291/3
f 306/290/3 308/290/3 307/291/3
f 305/288/43 303/289/43 309/291/43
f 308/290/43 305/288/43 309/291/43
f 306/290/1 302/288/1 305/288/1
f 308/290/1 306/290/1 305/288/1
f 304/289/2 307/291/2 309/291/2
f 303/289/2 304/289/2 309/291/2
f 310/292/22 312/293/22 311/293/22
f 313/292/22 310/292/22 311/293/22
f 312/293/40 315/294/40 314/294/40
f 311/293/40 312/293/40 314/294/40
f 315/294/3 317/295/3 316/295/3
f 314/294/3 315/294/3 316/295/3
f 317/295/1 315/294/1 312/293/1
f 310/292/1 317/295/1 312/293/1
f 313/292/2 311/293/2 314/294/2
f 316/295/2 313/292/2 314/294/2
f 318/296/156 320/296/156 319/297/156
f 321/297/156 318/296/156 319/297/156
f 322/298/40 323/298/40 320/296/40
f 318/296/40 322/298/40 320/296/40
f 324/299/157 325/299/157 323/298/157
f 322/298/157 324/299/157 323/298/157
f 322/298/1 318/296/1 321/297/1
f 324/299/1 322/298/1 321/297/1
f 320/296/2 323/298/2 325/299/2
f 319/297/2 320/296/2 325/299/2
f 326/300/40 328/301/40 327/301/40
f 329/300/40 326/300/40 327/301/40
f 330/302/1 332/303/1 331/304/1
f 333/305/1 330/302/1 331/304/1
f 334/303/2 336/302/2 335/305/2
f 337/304/2 334/303/2 335/305/2
f 338/306/158 339/307/158 335/305/158
f 336/302/158 338/306/158 335/305/158
f 340/307/159 341/306/159 330/302/159
f 333/305/159 340/307/159 330/302/159
f 329/300/160 327/301/160 339/307/160
f 338/306/160 329/300/160 339/307/160
f 328/301/161 326/300/161 341/306/161
f 340/307/161 328/301/161 341/306/161
f 327/301/3 328/301/3 340/307/3
f 339/307/3 327/301/3 340/307/3
f 339/307/3 340/307/3 333/305/3
f 335/305/3 339/307/3 333/305/3
f 337/304/3 335/305/3 333/305/3
f 337/304/3 333/305/3 331/304/3
f 326/300/22 329/300/22 338/306/22
f 341/306/22 326/300/22 338/306/22
f 341/306/22 338/306/22 336/302/22
f 330/302/22 341/306/22 336/302/22
f 332/303/22 330/302/22 336/302/22
f 332/303/22 336/302/22 334/303/22
f 342/308/40 344/309/40 343/310/40
f 345/311/40 342/308/40 343/310/40
f 346/311/43 348/310/43 347/309/43
f 349/308/43 346/311/43 347/309/43
f 342/308/1 345/311/1 346/311/1
f 349/308/1 342/308/1 346/311/1
f 343/310/2 344/309/2 347/309/2
f 348/310/2 343/310/2 347/309/2
f 350/32/8 352/30/12 351/312/12
f 353/313/8 350/32/8 351/312/12
f 354/314/11 351/312/12 352/30/12
f 354/314/11 352/30/12 355/28/11
f 356/315/1 354/314/11 355/28/11
f 356/315/1 355/28/11 357/316/1
f 358/317/19 356/315/1 357/316/1
f 358/317/19 357/316/1 359/42/19
f 360/318/18 358/317/19 359/42/19
f 360/318/18 359/42/19 361/40/18
f 362/319/17 360/318/18 361/40/18
f 362/319/17 361/40/18 363/38/17
f 364/320/15 362/319/17 363/38/17
f 364/320/15 363/38/17 365/36/15
f 366/321/2 364/320/15 365/36/15
f 366/321/2 365/36/15 367/322/2
f 368/323/7 366/321/2 367/322/2
f 368/323/7 367/322/2 369/22/7
f 353/324/8 368/323/7 369/22/7
f 350/23/8 353/324/8 369/22/7
f 370/325/40 372/326/40 371/327/40
f 373/328/40 370/325/40 371/327/40
f 374/329/162 370/325/162 373/328/162
f 375/330/162 374/329/162 373/328/162
f 376/331/163 374/329/163 375/330/163
f 377/332/163 376/331/163 375/330/163
f 378/333/43 376/331/43 377/332/43
f 379/334/43 378/333/43 377/332/43
f 380/335/164 378/333/164 379/334/164
f 381/336/164 380/335/164 379/334/164
f 372/337/165 380/335/165 381/336/165
f 371/338/165 372/337/165 381/336/165
f 382/339/166 384/340/166 383/340/166
f 385/339/166 382/339/166 383/340/166
f 386/340/167 388/339/167 387/339/167
f 389/340/167 386/340/167 387/339/167
f 390/341/168 386/340/168 389/340/168
f 391/341/168 390/341/168 389/340/168
f 384/340/169 393/341/169 392/341/169
f 383/340/169 384/340/169 392/341/169
f 382/339/2 388/339/2 386/340/2
f 384/340/2 382/339/2 386/340/2
f 393/341/2 384/340/2 386/340/2
f 393/341/2 386/340/2 390/341/2
f 392/341/1 391/341/1 389/340/1
f 383/340/1 392/341/1 389/340/1
f 385/339/1 383/340/1 389/340/1
f 385/339/1 389/340/1 387/339/1
f 394/341/170 396/340/170 395/340/170
f 397/341/170 394/341/170 395/340/170
f 395/340/171 396/340/171 398/339/171
f 399/339/171 395/340/171 398/339/171
f 399/339/1 401/342/1 400/343/1
f 399/339/1 400/343/1 402/344/1
f 395/340/1 399/339/1 402/344/1
f 395/340/1 402/344/1 403/345/1
f 397/341/1 395/340/1 403/345/1
f 397/341/1 403/345/1 404/346/1
f 405/343/2 406/342/2 398/339/2
f 407/344/2 405/343/2 398/339/2
f 407/344/2 398/339/2 396/340/2
f 408/345/2 407/344/2 396/340/2
f 408/345/2 396/340/2 394/341/2
f 409/346/2 408/345/2 394/341/2
f 409/346/172 404/346/172 403/345/173
f 408/345/174 409/346/172 403/345/173
f 408/345/174 403/345/173 402/344/175
f 407/344/176 408/345/174 402/344/175
f 407/344/176 402/344/175 400/343/173
f 405/343/177 407/344/176 400/343/173
f 406/342/178 405/343/177 400/343/173
f 406/342/178 400/343/173 401/342/178
f 410/347/22 412/348/22 411/348/22
f 413/347/22 410/347/22 411/348/22
f 411/348/43 412/348/43 414/348/43
f 415/348/43 411/348/43 414/348/43
f 416/349/179 410/347/179 413/347/179
f 417/349/43 416/349/43 413/347/43
f 418/350/180 420/351/181 419/352/182
f 418/350/180 419/352/182 421/352/183
f 422/350/184 418/350/180 421/352/183
f 422/350/184 421/352/183 423/351/185
f 424/353/186 426/353/187 425/353/187
f 424/353/186 425/353/187 427/353/188
f 419/352/182 424/353/186 427/353/188
f 419/352/182 427/353/188 421/352/183
f 428/354/189 430/355/189 429/356/190
f 431/357/191 428/354/189 429/356/190
f 431/357/191 429/356/190 432/356/192
f 433/357/192 431/357/191 432/356/192
f 433/357/192 432/356/192 434/355/193
f 435/354/193 433/357/194 434/355/193
f 418/350/195 422/350/196 436/358/197
f 437/358/198 418/350/195 436/358/197
f 438/359/199 437/358/198 436/358/197
f 438/359/199 436/358/197 439/359/200
f 422/350/196 423/351/201 440/360/202
f 436/358/197 422/350/196 440/360/202
f 436/358/197 440/360/202 441/361/203
f 439/359/200 436/358/197 441/361/203
f 439/359/200 441/361/203 428/354/204
f 439/359/200 428/354/204 431/357/205
f 438/359/199 439/359/200 431/357/205
f 438/359/199 431/357/205 433/357/206
f 438/359/199 433/357/206 435/354/207
f 438/359/199 435/354/207 442/361/208
f 437/358/198 438/359/199 442/361/208
f 437/358/198 442/361/208 443/360/209
f 418/350/195 437/358/198 443/360/209
f 418/350/195 443/360/209 420/351/210
f 416/349/2 444/362/2 430/355/2
f 410/347/2 416/349/2 430/355/2
f 410/347/2 430/355/2 428/354/2
f 410/347/2 428/354/2 441/361/2
f 410/347/2 441/361/2 414/348/2
f 412/348/2 410/347/2 414/348/2
f 421/352/2 427/353/2 445/363/2
f 423/351/2 421/352/2 445/363/2
f 440/360/2 423/351/2 445/363/2
f 440/360/2 445/363/2 446/364/2
f 440/360/2 446/364/2 447/365/2
f 440/360/2 447/365/2 448/366/2
f 440/360/2 448/366/2 449/367/2
f 441/361/2 440/360/2 449/367/2
f 441/361/2 449/367/2 414/348/2
f 434/355/1 450/362/1 417/349/1
f 435/354/1 434/355/1 417/349/1
f 435/354/1 417/349/1 413/347/1
f 442/361/1 435/354/1 413/347/1
f 415/348/1 442/361/1 413/347/1
f 415/348/1 413/347/1 411/348/1
f 442/361/1 415/348/1 451/367/1
f 443/360/1 442/361/1 451/367/1
f 443/360/1 451/367/1 452/366/1
f 443/360/1 452/366/1 453/365/1
f 443/360/1 453/365/1 454/364/1
f 443/360/1 454/364/1 455/363/1
f 420/351/1 443/360/1 455/363/1
f 419/352/1 420/351/1 455/363/1
f 419/352/1 455/363/1 424/353/1
f 452/366/211 451/367/212 456/367/213
f 457/366/214 452/366/211 456/367/213
f 457/366/214 456/367/213 458/367/215
f 459/366/216 457/366/214 458/367/215
f 448/366/217 459/366/216 458/367/215
f 449/367/218 448/366/217 458/367/215
f 414/348/219 449/367/218 458/367/215
f 414/348/219 458/367/215 456/367/213
f 415/348/220 414/348/219 456/367/213
f 415/348/220 456/367/213 451/367/212
f 454/364/211 453/365/221 460/365/222
f 461/364/223 454/364/211 460/365/222
f 461/364/223 460/365/222 462/365/224
f 463/364/225 461/364/223 462/365/224
f 446/364/217 463/364/225 462/365/224
f 447/365/226 446/364/217 462/365/224
f 448/366/217 447/365/226 462/365/224
f 459/366/216 448/366/217 462/365/224
f 459/366/216 462/365/224 460/365/222
f 457/366/214 459/366/216 460/365/222
f 452/366/211 457/366/214 460/365/222
f 452/366/211 460/365/222 453/365/221
f 424/353/227 455/363/228 464/363/229
f 426/353/230 424/353/227 464/363/229
f 425/353/231 426/353/230 464/363/229
f 425/353/231 464/363/229 465/363/232
f 427/353/233 425/353/231 465/363/232
f 445/363/234 427/353/233 465/363/232
f 446/364/217 445/363/234 465/363/232
f 463/364/225 446/364/217 465/363/232
f 463/364/225 465/363/232 464/363/229
f 461/364/223 463/364/225 464/363/229
f 454/364/211 461/364/223 464/363/229
f 454/364/211 464/363/229 455/363/228
f 466/368/40 468/368/40 467/369/40
f 469/369/40 466/368/40 467/369/40
f 470/370/235 472/370/235 471/371/235
f 473/371/235 470/370/235 471/371/235
f 474/372/1 476/373/1 475/374/1
f 477/375/1 474/372/1 475/374/1
f 467/369/236 468/368/236 478/372/236
f 479/373/236 467/369/236 478/372/236
f 466/368/237 469/369/237 476/373/237
f 474/372/237 466/368/237 476/373/237
f 480/374/238 481/375/239 471/371/238
f 472/370/238 480/374/238 471/371/238
f 477/375/240 475/374/240 470/370/240
f 473/371/240 477/375/240 470/370/240
f 479/373/2 478/372/2 481/375/2
f 480/374/2 479/373/2 481/375/2
f 468/368/3 466/368/3 474/372/3
f 478/372/3 468/368/3 474/372/3
f 478/372/3 474/372/3 477/375/3
f 481/375/3 478/372/3 477/375/3
f 481/375/3 477/375/3 473/371/3
f 471/371/3 481/375/3 473/371/3
f 469/369/241 467/369/241 479/373/242
f 476/373/243 469/369/241 479/373/242
f 476/373/243 479/373/242 480/374/244
f 475/374/244 476/373/243 480/374/244
f 475/374/244 480/374/244 472/370/245
f 470/370/245 475/374/244 472/370/245
f 482/376/246 484/377/246 483/377/246
f 485/376/246 482/376/246 483/377/246
f 486/378/3 488/379/3 487/379/3
f 489/378/3 486/378/3 487/379/3
f 484/377/43 486/378/43 489/378/43
f 483/377/43 484/377/43 489/378/43
f 487/379/1 485/376/1 483/377/1
f 489/378/1 487/379/1 483/377/1
f 484/377/2 482/376/2 488/379/2
f 486/378/2 484/377/2 488/379/2
f 490/380/22 492/380/22 491/381/22
f 493/381/22 490/380/22 491/381/22
f 494/382/1 490/380/1 493/381/1
f 495/383/1 494/382/1 493/381/1
f 492/380/2 497/382/2 496/383/2
f 491/381/2 492/380/2 496/383/2
f 498/384/22 500/384/22 499/385/22
f 501/385/22 498/384/22 499/385/22
f 502/386/40 503/386/40 500/384/40
f 498/384/40 502/386/40 500/384/40
f 501/385/43 499/385/43 504/387/43
f 505/387/43 501/385/43 504/387/43
f 506/388/43 508/388/43 507/389/43
f 509/389/43 506/388/43 507/389/43
f 510/390/40 512/390/40 511/391/40
f 513/391/40 510/390/40 511/391/40
f 505/387/247 504/387/247 508/388/247
f 506/388/247 505/387/247 508/388/247
f 513/391/248 511/391/248 503/386/248
f 502/386/248 513/391/248 503/386/248
f 509/389/1 510/390/1 513/391/1
f 506/388/1 509/389/1 513/391/1
f 506/388/1 513/391/1 502/386/1
f 505/387/1 506/388/1 502/386/1
f 501/385/1 505/387/1 502/386/1
f 501/385/1 502/386/1 498/384/1
f 499/385/2 500/384/2 503/386/2
f 504/387/2 499/385/2 503/386/2
f 504/387/2 503/386/2 511/391/2
f 508/388/2 504/387/2 511/391/2
f 507/389/2 508/388/2 511/391/2
f 507/389/2 511/391/2 512/390/2
f 514/392/22 516/393/22 515/393/22
f 517/392/22 514/392/22 515/393/22
f 518/394/1 514/392/1 517/392/1
f 519/394/1 518/394/1 517/392/1
f 516/393/2 521/395/2 520/395/2
f 515/393/2 516/393/2 520/395/2
f 522/396/1 524/396/1 523/397/1
f 525/397/1 522/396/1 523/397/1
f 526/398/2 528/398/2 527/399/2
f 529/399/2 526/398/2 527/399/2
f 518/394/249 519/394/249 525/397/249
f 523/397/249 518/394/249 525/397/249
f 520/395/250 521/395/250 529/399/250
f 527/399/250 520/395/250 529/399/250
f 524/396/251 522/396/251 530/400/252
f 531/400/253 524/396/251 530/400/252
f 531/400/253 530/400/252 532/401/254
f 533/401/254 531/400/253 532/401/254
f 534/402/255 533/401/254 532/401/254
f 534/402/255 532/401/254 535/402/255
f 534/402/255 535/402/255 536/403/256
f 537/403/256 534/402/255 536/403/256
f 537/403/256 536/403/256 528/398/257
f 526/398/257 537/403/256 528/398/257
f 516/393/40 514/392/40 518/394/40
f 521/395/40 516/393/40 518/394/40
f 521/395/40 518/394/40 523/397/40
f 529/399/40 521/395/40 523/397/40
f 529/399/40 523/397/40 524/396/40
f 526/398/40 529/399/40 524/396/40
f 526/398/40 524/396/40 538/404/40
f 537/403/40 526/398/40 538/404/40
f 534/402/40 537/403/40 538/404/40
f 533/401/40 534/402/40 538/404/40
f 531/400/40 533/401/40 538/404/40
f 531/400/40 538/404/40 524/396/40
f 539/405/22 541/405/22 540/406/22
f 542/406/22 539/405/22 540/406/22
f 543/407/40 544/407/40 541/405/40
f 539/405/40 543/407/40 541/405/40
f 545/408/43 547/408/43 546/409/43
f 548/409/43 545/408/43 546/409/43
f 542/406/43 540/406/43 549/410/43
f 550/410/43 542/406/43 549/410/43
f 547/408/258 545/408/258 550/410/258
f 549/410/258 547/408/258 550/410/258
f 545/408/1 548/409/1 543/407/1
f 550/410/1 545/408/1 543/407/1
f 542/406/1 550/410/1 543/407/1
f 542/406/1 543/407/1 539/405/1
f 546/409/2 547/408/2 549/410/2
f 544/407/2 546/409/2 549/410/2
f 541/405/2 544/407/2 549/410/2
f 541/405/2 549/410/2 540/406/2
f 551/411/22 552/411/22 559/412/22
f 560/412/22 551/411/22 559/412/22
f 553/413/40 554/413/40 552/411/40
f 551/411/40 553/413/40 552/411/40
f 561/414/3 562/414/3 554/413/3
f 553/413/3 561/414/3 554/413/3
f 560/412/43 559/412/43 562/414/43
f 561/414/43 560/412/43 562/414/43
f 553/413/1 551/411/1 560/412/1
f 561/414/1 553/413/1 560/412/1
f 552/411/2 554/413/2 562/414/2
f 559/412/2 552/411/2 562/414/2
f 561/414/3 562/414/3 555/413/3
f 556/413/3 561/414/3 555/413/3
f 556/413/1 557/411/1 560/412/1
f 561/414/1 556/413/1 560/412/1
f 557/411/22 558/411/22 559/412/22
f 560/412/22 557/411/22 559/412/22
f 556/413/40 555/413/40 558/411/40
f 557/411/40 556/413/40 558/411/40
f 558/411/2 555/413/2 562/414/2
f 559/412/2 558/411/2 562/414/2
f 728/415/3 730/416/3 729/417/3
f 731/418/3 728/415/3 729/417/3
f 732/419/3 731/418/3 729/417/3
f 733/420/3 732/419/3 729/417/3
f 734/421/3 733/420/3 729/417/3
f 734/421/3 729/417/3 730/416/3
f 735/422/22 737/423/22 736/424/22
f 738/425/22 735/422/22 736/424/22
f 739/426/22 738/425/22 736/424/22
f 740/427/22 739/426/22 736/424/22
f 741/428/22 740/427/22 736/424/22
f 741/428/22 736/424/22 737/423/22
f 732/429/259 733/430/260 739/431/260
f 732/429/259 739/431/260 740/432/259
f 731/433/2 732/429/259 740/432/259
f 731/433/2 740/432/259 741/434/2
f 728/415/261 731/433/2 741/434/2
f 728/415/261 741/434/2 737/423/261
f 730/416/262 728/415/261 737/423/261
f 730/416/262 737/423/261 735/422/262
f 734/435/1 730/416/262 735/422/262
f 734/435/1 735/422/262 738/436/1
f 733/437/260 734/435/1 738/436/1
f 733/437/260 738/436/1 739/438/260
f 742/439/263 744/439/263 743/440/264
f 745/440/265 742/439/263 743/440/264
f 745/440/265 743/440/264 746/441/266
f 747/441/266 745/440/265 746/441/266
f 748/442/267 747/441/266 746/441/266
f 748/442/267 746/441/266 749/442/267
f 748/442/1 751/442/1 750/441/1
f 747/441/1 748/442/1 750/441/1
f 747/441/1 750/441/1 752/440/1
f 745/440/1 747/441/1 752/440/1
f 742/439/1 745/440/1 752/440/1
f 742/439/1 752/440/1 753/439/1
f 744/439/2 755/439/2 754/440/2
f 743/440/2 744/439/2 754/440/2
f 746/441/2 743/440/2 754/440/2
f 746/441/2 754/440/2 756/441/2
f 749/442/2 746/441/2 756/441/2
f 749/442/2 756/441/2 757/442/2
f 754/440/268 755/439/269 753/439/269
f 754/440/270 753/439/269 752/440/271
f 756/441/272 754/440/270 752/440/271
f 756/441/272 752/440/271 750/441/273
f 757/442/274 756/441/272 750/441/273
f 757/442/274 750/441/275 751/442/274
f 758/182/8 760/181/12 759/29/12
f 761/31/8 758/182/8 759/29/12
f 762/27/11 759/29/12 760/181/12
f 762/27/11 760/181/12 763/183/11
f 764/443/1 762/27/11 763/183/11
f 764/443/1 763/183/11 765/185/1
f 766/41/19 764/443/1 765/185/1
f 766/41/19 765/185/1 767/187/19
f 768/39/18 766/41/19 767/187/19
f 768/39/18 767/187/19 769/189/18
f 770/37/17 768/39/18 769/189/18
f 770/37/17 769/189/18 771/190/17
f 772/35/15 770/37/17 771/190/17
f 772/35/15 771/190/17 773/191/15
f 774/444/2 772/35/15 773/191/15
f 774/444/2 773/191/15 775/193/2
f 776/21/7 774/444/2 775/193/2
f 776/21/7 775/193/2 777/195/7
f 761/24/8 776/21/7 777/195/7
f 758/197/8 761/24/8 777/195/7
f 765/269/3 779/211/3 778/210/3
f 767/270/3 765/269/3 778/210/3
f 779/211/3 765/269/3 763/271/3
f 780/212/3 779/211/3 763/271/3
f 780/212/3 763/271/3 760/272/3
f 781/213/3 780/212/3 760/272/3
f 781/213/3 760/272/3 758/273/3
f 782/214/3 781/213/3 758/273/3
f 782/214/3 758/273/3 777/274/3
f 783/215/3 782/214/3 777/274/3
f 783/215/3 777/274/3 775/275/3
f 784/216/3 783/215/3 775/275/3
f 784/216/3 775/275/3 773/276/3
f 785/217/3 784/216/3 773/276/3
f 785/217/3 773/276/3 771/277/3
f 786/218/3 785/217/3 771/277/3
f 786/218/3 771/277/3 769/278/3
f 787/209/3 786/218/3 769/278/3
f 787/209/3 769/278/3 767/270/3
f 778/210/3 787/209/3 767/270/3
f 779/445/3 789/446/3 788/447/3
f 778/448/3 779/445/3 788/447/3
f 789/446/3 779/445/3 780/449/3
f 790/450/3 789/446/3 780/449/3
f 790/450/3 780/449/3 781/451/3
f 791/452/3 790/450/3 781/451/3
f 791/452/3 781/451/3 782/453/3
f 792/454/3 791/452/3 782/453/3
f 792/454/3 782/453/3 783/455/3
f 793/456/3 792/454/3 783/455/3
f 793/456/3 783/455/3 784/457/3
f 794/458/3 793/456/3 784/457/3
f 794/458/3 784/457/3 785/459/3
f 795/460/3 794/458/3 785/459/3
f 795/460/3 785/459/3 786/461/3
f 796/462/3 795/460/3 786/461/3
f 796/462/3 786/461/3 787/463/3
f 797/464/3 796/462/3 787/463/3
f 797/464/3 787/463/3 778/448/3
f 788/447/3 797/464/3 778/448/3
f 798/465/22 764/269/22 766/270/22
f 799/466/22 798/465/22 766/270/22
f 764/269/22 798/465/22 800/467/22
f 762/271/22 764/269/22 800/467/22
f 762/271/22 800/467/22 801/468/22
f 759/272/22 762/271/22 801/468/22
f 759/272/22 801/468/22 802/469/22
f 761/273/22 759/272/22 802/469/22
f 761/273/22 802/469/22 803/470/22
f 776/274/22 761/273/22 803/470/22
f 776/274/22 803/470/22 804/471/22
f 774/275/22 776/274/22 804/471/22
f 774/275/22 804/471/22 805/472/22
f 772/276/22 774/275/22 805/472/22
f 772/276/22 805/472/22 806/473/22
f 770/277/22 772/276/22 806/473/22
f 770/277/22 806/473/22 807/474/22
f 768/278/22 770/277/22 807/474/22
f 768/278/22 807/474/22 799/466/22
f 766/270/22 768/278/22 799/466/22
f 790/467/15 809/468/17 808/467/15
f 789/465/2 790/467/15 808/467/15
f 809/468/17 790/467/15 791/468/17
f 810/469/18 809/468/17 791/468/17
f 810/469/18 791/468/17 792/469/18
f 811/470/19 810/469/18 792/469/18
f 811/470/19 792/469/18 793/470/19
f 812/471/1 811/470/19 793/470/19
f 812/471/1 793/470/19 794/471/1
f 813/472/11 812/471/1 794/471/1
f 813/472/11 794/471/1 795/472/11
f 814/473/12 813/472/11 795/472/11
f 814/473/12 795/472/11 796/473/12
f 815/474/8 814/473/12 796/473/12
f 815/474/8 796/473/12 797/474/8
f 816/466/7 815/474/8 797/474/8
f 816/466/7 797/474/8 788/466/7
f 817/465/2 816/466/7 788/466/7
f 817/465/2 788/466/7 789/465/2
f 808/467/15 817/465/2 789/465/2
f 154/475/3 156/475/3 155/475/3
f 157/475/3 154/475/3 155/475/3
f 158/475/3 157/475/3 155/475/3
f 159/475/3 158/475/3 155/475/3
f 160/475/3 159/475/3 155/475/3
f 161/475/3 160/475/3 155/475/3
f 162/475/3 161/475/3 155/475/3
f 162/475/3 155/475/3 163/475/3
f 228/475/22 230/475/22 229/475/22
f 231/475/22 228/475/22 229/475/22
f 232/475/22 231/475/22 229/475/22
f 233/475/22 232/475/22 229/475/22
f 234/475/22 233/475/22 229/475/22
f 235/475/22 234/475/22 229/475/22
f 236/475/22 235/475/22 229/475/22
f 236/475/22 229/475/22 237/475/22
f 563/476/2 565/477/2 564/478/2
f 566/479/2 563/476/2 564/478/2
f 567/480/43 565/481/43 568/481/43
f 569/480/43 567/480/43 568/481/43
f 570/482/40 571/483/40 564/483/40
f 572/482/40 570/482/40 564/483/40
f 573/484/276 567/480/276 569/480/276
f 574/484/276 573/484/276 569/480/276
f 584/485/277 570/482/277 572/482/277
f 583/485/277 584/485/277 572/482/277
f 575/486/278 566/479/278 564/478/278
f 576/487/278 575/486/278 564/478/278
f 576/487/278 564/478/278 571/478/278
f 563/476/279 578/488/279 577/489/279
f 565/477/279 563/476/279 577/489/279
f 565/477/279 577/489/279 568/477/279
f 574/484/280 585/490/281 586/490/282
f 574/484/280 586/490/282 573/484/280
f 573/484/3 586/490/3 583/485/3
f 567/480/3 573/484/3 583/485/3
f 567/480/3 583/485/3 572/482/3
f 565/481/3 567/480/3 572/482/3
f 565/481/3 572/482/3 564/483/3
f 569/480/22 568/481/22 571/483/22
f 569/480/22 571/483/22 570/482/22
f 569/480/22 570/482/22 584/485/22
f 574/484/22 569/480/22 584/485/22
f 574/484/22 584/485/22 585/490/22
f 568/481/22 577/491/22 579/492/22
f 568/481/22 579/492/22 580/493/22
f 571/483/22 568/481/22 580/493/22
f 571/483/22 580/493/22 581/494/22
f 576/495/22 571/483/22 581/494/22
f 576/495/22 581/494/22 582/496/22
f 820/490/281 818/485/2 819/485/2
f 820/490/281 819/485/2 821/490/283
f 592/497/3 588/497/3 587/475/3
f 591/475/3 592/497/3 587/475/3
f 589/498/22 593/498/22 594/499/22
f 590/499/22 589/498/22 594/499/22
f 588/497/284 589/498/1 590/499/284
f 587/475/1 588/497/284 590/499/284
f 591/475/285 587/475/285 590/499/285
f 594/499/285 591/475/285 590/499/285
f 593/498/286 589/498/286 588/497/286
f 592/497/286 593/498/286 588/497/286
f 595/500/22 597/501/22 596/502/22
f 598/503/22 595/500/22 596/502/22
f 640/504/287 641/505/288 599/506/289
f 642/507/290 640/504/287 599/506/289
f 599/506/289 601/508/291 600/509/292
f 642/507/290 599/506/289 600/509/292
f 642/507/290 600/509/292 602/510/293
f 642/507/290 602/510/293 643/511/290
f 641/505/288 644/512/294 603/513/295
f 645/514/296 602/515/293 600/516/292
f 644/512/294 645/514/296 600/516/292
f 644/512/294 600/516/292 601/517/291
f 603/513/295 644/512/294 601/517/291
f 603/513/295 601/517/291 604/518/297
f 603/513/295 604/518/297 605/519/298
f 603/513/295 605/519/298 606/520/288
f 641/505/288 603/513/295 606/520/288
f 641/505/288 606/520/288 607/521/299
f 599/506/289 641/505/288 607/521/299
f 601/508/291 599/506/289 607/521/299
f 601/508/291 607/521/299 604/522/297
f 608/523/300 610/524/301 609/525/40
f 611/526/302 608/523/300 609/525/40
f 598/527/1 611/526/302 609/525/40
f 598/527/1 609/525/40 595/528/40
f 597/529/2 595/530/40 609/531/40
f 612/532/303 597/529/2 609/531/40
f 612/532/303 609/531/40 610/533/301
f 612/532/303 610/533/301 613/534/304
f 612/532/303 613/534/304 614/535/305
f 615/536/306 612/532/303 614/535/305
f 615/536/306 614/535/305 608/523/300
f 615/536/306 608/523/300 611/526/302
f 615/536/306 611/526/302 598/527/1
f 615/536/306 598/527/1 596/537/306
f 615/536/306 596/537/306 597/529/2
f 612/532/303 615/536/306 597/529/2
f 616/538/307 617/539/308 610/540/301
f 616/538/307 610/540/301 608/523/300
f 616/538/307 608/523/300 614/541/305
f 618/542/309 616/538/307 614/541/305
f 618/542/309 614/541/305 613/543/304
f 619/544/310 618/542/309 613/543/304
f 617/545/308 619/544/310 613/543/304
f 617/545/308 613/543/304 610/546/301
f 620/547/311 621/548/312 617/549/308
f 620/547/311 617/549/308 616/538/307
f 620/547/311 616/538/307 618/550/309
f 622/551/313 620/547/311 618/550/309
f 622/551/313 618/550/309 619/552/310
f 623/553/314 622/551/313 619/552/310
f 621/554/312 623/553/314 619/552/310
f 621/554/312 619/552/310 617/555/308
f 624/556/315 625/557/316 621/558/312
f 624/556/315 621/558/312 620/559/311
f 624/556/315 620/559/311 622/560/313
f 626/561/317 624/556/315 622/560/313
f 626/561/317 622/560/313 623/562/314
f 627/563/318 626/561/317 623/562/314
f 625/564/316 627/563/318 623/562/314
f 625/564/316 623/562/314 621/565/312
f 628/566/290 629/567/319 625/568/316
f 628/566/290 625/568/316 624/569/315
f 628/566/290 624/569/315 626/570/317
f 630/571/320 628/566/290 626/570/317
f 630/571/320 626/570/317 627/572/318
f 631/573/294 630/571/320 627/572/318
f 629/574/319 631/573/294 627/572/318
f 629/574/319 627/572/318 625/575/316
f 643/576/290 602/577/293 629/578/319
f 643/576/290 629/578/319 628/579/290
f 643/576/290 628/579/290 630/580/320
f 646/581/321 643/576/290 630/580/320
f 646/581/321 630/580/320 631/582/294
f 645/583/296 646/581/321 631/582/294
f 602/584/293 645/583/296 631/582/294
f 602/584/293 631/582/294 629/585/319
f 632/586/322 633/587/1 604/588/297
f 632/586/322 604/588/297 607/589/299
f 632/586/322 607/589/299 606/590/288
f 634/591/2 632/586/322 606/590/288
f 634/591/2 606/590/288 605/592/298
f 635/593/323 634/591/2 605/592/298
f 633/594/1 635/593/323 605/592/298
f 633/594/1 605/592/298 604/595/297
f 636/596/324 637/597/325 633/598/1
f 636/596/324 633/598/1 632/599/322
f 638/600/326 636/596/324 632/599/322
f 638/600/326 632/599/322 634/601/2
f 639/602/285 638/600/326 634/601/2
f 639/602/285 634/601/2 635/603/323
f 637/604/325 639/602/285 635/603/323
f 637/604/325 635/603/323 633/605/1
f 824/507/290 825/511/327 826/606/328
f 822/504/329 824/507/290 826/606/328
f 822/504/329 826/606/328 827/514/296
f 822/504/329 827/514/296 828/512/330
f 823/505/288 822/504/329 828/512/330
f 831/498/331 829/497/2 830/475/331
f 832/499/2 831/498/331 830/475/331
f 647/607/332 649/607/332 648/608/332
f 650/608/332 647/607/332 648/608/332
f 651/609/2 648/608/2 649/607/2
f 652/610/2 651/609/2 649/607/2
f 649/607/22 647/607/22 653/610/22
f 652/610/22 649/607/22 653/610/22
f 650/608/3 648/608/3 651/609/3
f 654/609/3 650/608/3 651/609/3
f 647/607/1 650/608/1 654/609/1
f 653/610/1 647/607/1 654/609/1
f 652/610/40 653/610/40 654/609/40
f 651/609/40 652/610/40 654/609/40
f 655/611/333 657/612/334 656/613/333
f 658/611/1 655/611/333 656/613/333
f 659/614/335 658/611/335 656/613/336
f 660/615/336 659/614/335 656/613/336
f 660/615/337 662/616/338 661/614/337
f 659/614/2 660/615/337 661/614/337
f 662/616/339 657/612/339 655/611/340
f 661/614/341 662/616/339 655/611/340
f 659/614/342 661/614/341 655/611/340
f 659/614/342 655/611/340 658/611/342
f 663/617/343 665/618/344 664/619/344
f 663/617/343 664/619/344 666/620/343
f 657/612/345 663/617/343 666/620/343
f 657/612/345 666/620/343 656/613/345
f 667/621/346 664/619/344 665/618/344
f 667/621/346 665/618/344 668/622/346
f 669/623/347 667/621/346 668/622/346
f 669/623/347 668/622/346 670/624/348
f 671/625/349 669/623/347 670/624/348
f 671/625/349 670/624/348 672/626/350
f 673/627/351 671/625/349 672/626/350
f 673/627/351 672/626/350 674/628/351
f 675/629/352 673/627/351 674/628/351
f 675/629/352 674/628/351 676/630/352
f 677/631/353 675/629/352 676/630/352
f 677/631/353 676/630/352 678/632/353
f 679/633/354 677/631/353 678/632/353
f 679/633/354 678/632/353 680/634/354
f 681/635/355 679/633/354 680/634/354
f 681/635/355 680/634/354 682/636/356
f 681/635/355 682/636/356 662/616/345
f 660/615/345 681/635/356 662/616/345
f 666/620/357 664/619/357 683/637/357
f 681/635/357 666/620/357 683/637/357
f 679/633/357 681/635/357 683/637/357
f 677/631/357 679/633/357 683/637/357
f 675/629/358 677/631/357 683/637/357
f 673/627/357 675/629/358 683/637/357
f 671/625/357 673/627/357 683/637/357
f 669/623/357 671/625/357 683/637/357
f 667/621/357 669/623/357 683/637/357
f 667/621/357 683/637/357 664/619/357
f 665/618/359 663/617/359 684/637/359
f 668/622/359 665/618/359 684/637/359
f 670/624/360 668/622/359 684/637/359
f 672/626/360 670/624/360 684/637/359
f 674/628/360 672/626/360 684/637/359
f 676/630/360 674/628/360 684/637/359
f 678/632/359 676/630/360 684/637/359
f 680/634/359 678/632/359 684/637/359
f 682/636/359 680/634/359 684/637/359
f 662/616/359 682/636/359 684/637/359
f 657/612/359 662/616/359 684/637/359
f 657/612/359 684/637/359 663/617/359
f 685/638/1 687/638/1 686/639/1
f 688/639/1 685/638/1 686/639/1
f 689/640/2 691/641/2 690/641/2
f 692/640/2 689/640/2 690/641/2
f 688/639/361 692/640/361 690/641/362
f 685/638/362 688/639/361 690/641/362
f 687/638/363 691/641/363 689/640/364
f 686/639/364 687/638/363 689/640/364
f 688/639/365 686/639/364 689/640/364
f 688/639/365 689/640/364 692/640/366
f 693/642/367 695/643/368 694/643/368
f 693/642/367 694/643/368 696/642/369
f 685/638/365 693/642/370 696/642/370
f 685/638/365 696/642/370 687/638/365
f 697/644/1 694/643/368 695/643/368
f 697/644/1 695/643/368 698/644/1
f 699/645/371 697/644/1 698/644/1
f 699/645/371 698/644/1 700/645/371
f 701/646/372 699/645/371 700/645/371
f 701/646/372 700/645/371 702/646/372
f 703/647/373 701/646/372 702/646/372
f 703/647/373 702/646/372 704/647/373
f 705/648/374 703/647/373 704/647/373
f 705/648/374 704/647/373 706/648/374
f 707/649/2 705/648/374 706/648/374
f 707/649/2 706/648/374 708/649/2
f 709/650/375 707/649/2 708/649/2
f 709/650/375 708/649/2 710/650/375
f 711/651/376 709/650/375 710/650/375
f 711/651/376 710/650/375 712/651/376
f 711/651/376 712/651/376 690/641/365
f 691/641/365 711/651/376 690/641/365
f 695/643/377 693/642/377 713/652/377
f 698/644/377 695/643/377 713/652/377
f 700/645/377 698/644/377 713/652/377
f 702/646/377 700/645/377 713/652/377
f 704/647/377 702/646/377 713/652/377
f 706/648/377 704/647/377 713/652/377
f 708/649/377 706/648/377 713/652/377
f 710/650/377 708/649/377 713/652/377
f 712/651/377 710/650/377 713/652/377
f 712/651/377 713/652/377 693/642/377
f 696/642/378 694/643/379 714/652/378
f 687/638/378 696/642/378 714/652/378
f 691/641/378 687/638/378 714/652/378
f 711/651/378 691/641/378 714/652/378
f 709/650/379 711/651/378 714/652/378
f 707/649/378 709/650/379 714/652/378
f 705/648/378 707/649/378 714/652/378
f 703/647/378 705/648/378 714/652/378
f 701/646/378 703/647/378 714/652/378
f 699/645/378 701/646/378 714/652/378
f 697/644/378 699/645/378 714/652/378
f 697/644/378 714/652/378 694/643/379
f 715/653/1 717/654/1 716/655/1
f 718/656/1 715/653/1 716/655/1
f 718/656/1 716/655/1 719/657/1
f 720/658/1 718/656/1 719/657/1
f 721/655/2 723/654/2 722/653/2
f 721/655/2 722/653/2 724/656/2
f 725/657/2 721/655/2 724/656/2
f 725/657/2 724/656/2 726/658/2
f 722/653/380 715/653/380 718/656/381
f 724/656/382 722/653/380 718/656/381
f 726/658/383 724/656/382 718/656/381
f 727/658/383 726/658/383 718/656/384
f 727/658/383 718/656/384 720/658/383
f 715/653/385 722/653/385 723/654/386
f 717/654/387 715/653/385 723/654/386
f 717/654/387 723/654/386 721/655/388
f 716/655/389 717/654/387 721/655/388
f 719/657/390 716/655/389 721/655/388
f 719/657/390 721/655/389 725/657/390
